/* XPM */
static char * door_open_test_xpm[] = {
"64 64 21 1",
" 	c None",
".	c #777777",
"+	c #535353",
"@	c #333333",
"#	c #000008",
"$	c #878787",
"%	c #434343",
"&	c #757575",
"*	c #310000",
"=	c #6B0000",
"-	c #6C0000",
";	c #6D0000",
">	c #6E0000",
",	c #710000",
"'	c #979797",
")	c #000000",
"!	c #010000",
"~	c #43FF00",
"{	c #43FD01",
"]	c #43FF01",
"^	c #43FE00",
"................................................................",
".++++++++++++++++++++++++++++++@@++++++++++++++++++++++++++++++.",
".++++++++++++++++++++++++++++++@@++++++++++++++++++++++++++++++.",
"@@@@@@@@@@@@@@@@@@@@@@@@@@@@@@@@@@@@@@@@@@@@@@@@@@@@@@@@@@@@@@@#",
"#@$...........................@##@$...........................@#",
"#@.+++++++++++++++++++++++++++@##@.+++++++++++++++++++++++++++@#",
"#@.+.%+++++++++++++++++++++.%+@##@.+.%+++++++++++++++++++++.%+@#",
"#@.+%@+++++++++++++++++++++%@+@##@.+%@+++++++++++++++++++++%@+@#",
"#@.+++                     +++@##@.+++                     +++@#",
"#@.+++                     +++@##@.+++                     +++@#",
"#@.+++                     +++@##@.+++                     +++@#",
"#@.+++                     +++@##@.+++                     +++@#",
"#@.+++                     +++@##@.+++                     +++@#",
"#@.+++                     +++@##@.+++                     +++@#",
"#@.+++                     +++@##@.+++                     +++@#",
"#@.+++                     +++@##@.+++                     +++@#",
"#@.+++                     +++@##@.+++                     +++@#",
"#@.+++                     +++@##@.+++                     +++@#",
"#@.+++                     +++@##@.+++                     +++@#",
"#@.+++                     +++@##@.+++                     +++@#",
"#@.+++                     +++@##@.+++                     +++@#",
"#@.+++                     +++@##@.+++                     +++@#",
"#@.+.%+++++++++++++++++++++.%+@##@.+.%++++++..&..&.......++.%+@#",
"#@.+%@+++++++++++++++++++++%@+@##@.+%@++++++.#######@#@#@++%@+@#",
"#@.+++++++++++++++++++++++++++@##@.+++++++++.##****#+#+#@+++++@#",
"#@@@@@@@@@@@@@@@@@@@@@@@@@@@@@@##@@@@@@@@@@@.##*==*#.#.#@@@@@@@@",
"#@$......................#$...@##$...@#$.....##*-;*#.#.#@.....@#",
"#@.++++++++++++++++++++++#.+++@##.+++@#.++++.##*>,*#'#.#@+++++@#",
"#@.+.%++++++++++++++++.%+#.+++@##.+++@#.+.%+.##****#'#'#@++.%+@#",
"#@.+%@++++++++++++++++%@+#.+++@##.+++@#.+%@+.#######'#'#@++%@+@#",
"#@.+++                +++#.))!@##.)))@#.++++.##..+%#.#.#@+++++@#",
"#@.+++                +++#.!)!@##.)))@#.++++.##.+%@#.#.#@+++++@#",
"#@.+++                +++#.+++@##.+++@#.++++.#######.#.#@+++++@#",
"#@.+++                +++#.+@@@##.@@+@#.++++.##..+%#+#.#@+++++@#",
"#@.+++                +++#.+~~@##.~~+@#.++++.##.+%@#+#+#@+++++@#",
"#@.+++                +++#.+~~@##.{{+@#.++++.#######%#%#@+++++@#",
"#@.+++                +++#.+]]@##.]]+@#.++++.#######@#@#@+++++@#",
"#@.+++                +++#.+]]@##.^^+@#.++++.###########@+++++@#",
"#@.+.%++++++++++++++++.%+#.+++@##.+++@#.+.%++@@@@@@@@@@@@++.%+@#",
"#@.+%@++++++++++++++++%@+#@@@@@##@@@@@#.+%@++++++++++++++++%@+@#",
"#@.++++++++++++++++++++++##############.++++++++++++++++++++++@#",
"#@@@@@@@@@@@@@@@@@@@@@@@@@@@@@@##@@@@@@@@@@@@@@@@@@@@@@@@@@@@@@@",
"#@$...........................@##@$...........................@#",
"#@.+++++++++++++++++++++++++++@##@.+++++++++++++++++++++++++++@#",
"#@.+.%+++++++++++++++++++++.%+@##@.+.%+++++++++++++++++++++.%+@#",
"#@.+%@+++++++++++++++++++++%@+@##@.+%@+++++++++++++++++++++%@+@#",
"#@.+++                     +++@##@.+++                     +++@#",
"#@.+++                     +++@##@.+++                     +++@#",
"#@.+++                     +++@##@.+++                     +++@#",
"#@.+++                     +++@##@.+++                     +++@#",
"#@.+++                     +++@##@.+++                     +++@#",
"#@.+++                     +++@##@.+++                     +++@#",
"#@.+.%+++++++++++++++++++++.%+@##@.+.%+++++++++++++++++++++.%+@#",
"#@.+%@+++++++++++++++++++++%@+@##@.+%@+++++++++++++++++++++%@+@#",
"#@.+++++++++++++++++++++++++++@##@.+++++++++++++++++++++++++++@#",
"#@@@@@@@@@@@@@@@@@@@@@@@@@@@@@@##@@@@@@@@@@@@@@@@@@@@@@@@@@@@@@#",
"..............................@##@.............................@",
".+++++++++++++++++++++++++++++@##@+++++++++++++++++++++++++++++@",
".+++++++++++++++++++++++++++++@##@+++++++++++++++++++++++++++++@",
".+++++++++++++++++++++++++++++@##@+++++++++++++++++++++++++++++@",
".+++++++++++++++++++++++++++++@##@+++++++++++++++++++++++++++++@",
".+++++++++++++++++++++++++++++@##@+++++++++++++++++++++++++++++@",
".+++++++++++++++++++++++++++++@##@+++++++++++++++++++++++++++++@",
"@@@@@@@@@@@@@@@@@@@@@@@@@@@@@@@##@@@@@@@@@@@@@@@@@@@@@@@@@@@@@@@"};
