/* XPM */
static char * door_close_test_xpm[] = {
"64 64 14 1",
" 	c None",
".	c #777777",
"+	c #535353",
"@	c #333333",
"#	c #000008",
"$	c #878787",
"%	c #434343",
"&	c #767676",
"*	c #FF7373",
"=	c #FE0000",
"-	c #B30000",
";	c #6B0000",
">	c #979797",
",	c #CB0000",
"................................................................",
".++++++++++++++++++++++++++++++@@++++++++++++++++++++++++++++++.",
".++++++++++++++++++++++++++++++@@++++++++++++++++++++++++++++++.",
"@@@@@@@@@@@@@@@@@@@@@@@@@@@@@@@@@@@@@@@@@@@@@@@@@@@@@@@@@@@@@@@#",
"#@$...........................@##@$...........................@#",
"#@.+++++++++++++++++++++++++++@##@.+++++++++++++++++++++++++++@#",
"#@.+.%+++++++++++++++++++++.%+@##@.+.%+++++++++++++++++++++.%+@#",
"#@.+%@+++++++++++++++++++++%@+@##@.+%@+++++++++++++++++++++%@+@#",
"#@.+++                     +++@##@.+++                     +++@#",
"#@.+++                     +++@##@.+++                     +++@#",
"#@.+++                     +++@##@.+++                     +++@#",
"#@.+++                     +++@##@.+++                     +++@#",
"#@.+++                     +++@##@.+++                     +++@#",
"#@.+++                     +++@##@.+++                     +++@#",
"#@.+++                     +++@##@.+++                     +++@#",
"#@.+++                     +++@##@.+++                     +++@#",
"#@.+++                     +++@##@.+++                     +++@#",
"#@.+++                     +++@##@.+++                     +++@#",
"#@.+++                     +++@##@.+++                     +++@#",
"#@.+++                     +++@##@.+++                     +++@#",
"#@.+++                     +++@##@.+++                     +++@#",
"#@.+++                     +++@##@.+++                     +++@#",
"#@.+.%+++++++++++++++++++++.%+@##@.+.%++++++...&...&....@++.%+@#",
"#@.+%@+++++++++++++++++++++%@+@##@.+%@++++++.#######@#@#@++%@+@#",
"#@.+++++++++++++++++++++++++++@##@.+++++++++.##*==-#+#+#@+++++@#",
"#@@@@@@@@@@@@@@@@@@@@@@@@@@@@@@##@@@@@@@@@@@.##=--;#.#.#@@@@@@@@",
"#@$......................#$...@##$...@#$.....##=--;#.#.#@.....@#",
"#@.++++++++++++++++++++++#.+++@##.+++@#.++++.##=--;#>#.#@+++++@#",
"#@.+.%++++++++++++++++.%+#.+++@##.+++@#.+.%+.##-;;;#>#>#@++.%+@#",
"#@.+%@++++++++++++++++%@+#.+++@##.+++@#.+%@+.#######>#>#@++%@+@#",
"#@.+++                +++#.,,,@##.,,,@#.++++.##..+%#.#.#@+++++@#",
"#@.+++                +++#.,,,@##.,,,@#.++++.##.+%@#.#.#@+++++@#",
"#@.+++                +++#.+++@##.+++@#.++++.#######.#.#@+++++@#",
"#@.+++                +++#.+@@@##.@@+@#.++++.##..+%#+#.#@+++++@#",
"#@.+++                +++#.+##@##.##+@#.++++.##.+%@#+#+#@+++++@#",
"#@.+++                +++#.+##@##.##+@#.++++.#######%#%#@+++++@#",
"#@.+++                +++#.+##@##.##+@#.++++.#######@#@#@+++++@#",
"#@.+++                +++#.+##@##.##+@#.++++.###########@+++++@#",
"#@.+.%++++++++++++++++.%+#.+++@##.+++@#.+.%++@@@@@@@@@@@@++.%+@#",
"#@.+%@++++++++++++++++%@+#@@@@@##@@@@@#.+%@++++++++++++++++%@+@#",
"#@.++++++++++++++++++++++##############.++++++++++++++++++++++@#",
"#@@@@@@@@@@@@@@@@@@@@@@@@@@@@@@##@@@@@@@@@@@@@@@@@@@@@@@@@@@@@@@",
"#@$...........................@##@$...........................@#",
"#@.+++++++++++++++++++++++++++@##@.+++++++++++++++++++++++++++@#",
"#@.+.%+++++++++++++++++++++.%+@##@.+.%+++++++++++++++++++++.%+@#",
"#@.+%@+++++++++++++++++++++%@+@##@.+%@+++++++++++++++++++++%@+@#",
"#@.+++                     +++@##@.+++                     +++@#",
"#@.+++                     +++@##@.+++                     +++@#",
"#@.+++                     +++@##@.+++                     +++@#",
"#@.+++                     +++@##@.+++                     +++@#",
"#@.+++                     +++@##@.+++                     +++@#",
"#@.+++                     +++@##@.+++                     +++@#",
"#@.+.%+++++++++++++++++++++.%+@##@.+.%+++++++++++++++++++++.%+@#",
"#@.+%@+++++++++++++++++++++%@+@##@.+%@+++++++++++++++++++++%@+@#",
"#@.+++++++++++++++++++++++++++@##@.+++++++++++++++++++++++++++@#",
"#@@@@@@@@@@@@@@@@@@@@@@@@@@@@@@##@@@@@@@@@@@@@@@@@@@@@@@@@@@@@@#",
"..............................@##@.............................@",
".+++++++++++++++++++++++++++++@##@+++++++++++++++++++++++++++++@",
".+++++++++++++++++++++++++++++@##@+++++++++++++++++++++++++++++@",
".+++++++++++++++++++++++++++++@##@+++++++++++++++++++++++++++++@",
".+++++++++++++++++++++++++++++@##@+++++++++++++++++++++++++++++@",
".+++++++++++++++++++++++++++++@##@+++++++++++++++++++++++++++++@",
".+++++++++++++++++++++++++++++@##@+++++++++++++++++++++++++++++@",
"@@@@@@@@@@@@@@@@@@@@@@@@@@@@@@@##@@@@@@@@@@@@@@@@@@@@@@@@@@@@@@@"};
