/* XPM */
static char * east_wall_xpm[] = {
"64 64 50 1",
" 	c #FF0000",
".	c #E10000",
"+	c #BC0000",
"@	c #890000",
"#	c #9D0000",
"$	c #A50000",
"%	c #950000",
"&	c #B30000",
"*	c #000000",
"=	c #5A0000",
"-	c #4D0000",
";	c #160000",
">	c #670000",
",	c #330000",
"'	c #8E0000",
")	c #750000",
"!	c #AA0000",
"~	c #580000",
"{	c #DD0000",
"]	c #540000",
"^	c #E80000",
"/	c #F40000",
"(	c #EB0000",
"_	c #D50000",
":	c #DB0000",
"<	c #D20000",
"[	c #3E0000",
"}	c #600000",
"|	c #370000",
"1	c #560000",
"2	c #A30000",
"3	c #4C0000",
"4	c #7A0000",
"5	c #780000",
"6	c #AB0000",
"7	c #CA0000",
"8	c #620000",
"9	c #970000",
"0	c #700000",
"a	c #940000",
"b	c #2F0000",
"c	c #AC0000",
"d	c #CC0000",
"e	c #E50000",
"f	c #FC0000",
"g	c #6E0000",
"h	c #770000",
"i	c #6B0000",
"j	c #500000",
"k	c #650000",
"                                                                ",
"                                                                ",
"                                                                ",
"                                                                ",
"                                                                ",
"                                                                ",
"                                                                ",
"                                                                ",
"                                                                ",
"                                                                ",
"             .+@#@$%%$@#@$$@#@$%%$@#@$$%#@#%%$@&+               ",
"             %***********************************               ",
"             =***********************************               ",
"             -**;@$%%$@#@$$@#@$%%$@#@$$%#@#%%$@&+               ",
"             >**,                                               ",
"             '**)                                               ",
"             %**%                                               ",
"             $**$                                               ",
"             !**~                                               ",
"             {**]                                               ",
"             ^***                                               ",
"              ***/                                              ",
"              ~**^                                              ",
"              ***^                                              ",
"              ***/                                              ",
"              ***                                               ",
"              ***                                               ",
"              ***                                               ",
"             (***                                               ",
"             {**]                 /^_:<:_{{<{^                  ",
"             !**[$$@#@$%%$@'~}}|1*************                  ",
"             2********************************                  ",
"             %*********************|3~|~3}}|}4                  ",
"             $**5$$@#@$%%$@6!{{<{^                              ",
"             $**$                                               ",
"             !**~                                               ",
"             7**8                                               ",
"             <**|                                               ",
"             {**}                                               ",
"             _**3                                               ",
"             _**3                                               ",
"             {**}                                               ",
"             !**~                                               ",
"             2**9                                               ",
"             @**@                                               ",
"             $**$                                               ",
"             $**$                                               ",
"             @**@                                               ",
"             9**2                                               ",
"             ~**!                                               ",
"             0**a                                               ",
"             a**b~9%%$@#@$$%#@#%cd<e^       (^<e^               ",
"             ^************************************4             ",
"             f^g**********************************4             ",
"               ({!2%%$@#@$$%#@#%hi|j*********~|k**4             ",
"                                                                ",
"                                                                ",
"                                                                ",
"                                                                ",
"                                                                ",
"                                                                ",
"                                                                ",
"                                                                ",
"                                                                "};
