/* XPM */
static char * gobelin_xpm[] = {
"16 16 7 1",
" 	c none",
".	c #333333",
"+	c #4F3038",
"@	c #5C3841",
"#	c #597F1E",
"$	c #376129",
"%	c #B9B5C3",
"                ",
"        .....   ",
"       .+@@@+.  ",
"     ..+@@@@@+..",
"     .###@@@@@..",
"      .@@@@$$#. ",
"      .@$@@..#. ",
"      .$#@@###. ",
"     .$#@@$.@.  ",
"    .$...#..    ",
"    .$$$$...... ",
"    ...$$@%%%%. ",
"    .@@.......  ",
"    .@@@@@@.    ",
"    .@@...@.    ",
"    .@.  .@.    "};
