/* XPM */
static char * north_wall_xpm[] = {
"64 64 39 1",
" 	c #33FF00",
".	c #2CE100",
"+	c #23BC00",
"@	c #000000",
"#	c #30F400",
"$	c #2DE800",
"%	c #199400",
"&	c #117500",
"*	c #137A00",
"=	c #2EEB00",
"-	c #199500",
";	c #1EAA00",
">	c #1DA500",
",	c #168900",
"'	c #0D6200",
")	c #1B9D00",
"!	c #158300",
"~	c #32FC00",
"{	c #21B300",
"]	c #0F6B00",
"^	c #27CC00",
"/	c #0B5800",
"(	c #106E00",
"_	c #043700",
":	c #28D200",
"<	c #1DA300",
"[	c #2ADB00",
"}	c #26CB00",
"|	c #2BDD00",
"1	c #0D6000",
"2	c #29D500",
"3	c #084C00",
"4	c #127700",
"5	c #1FAC00",
"6	c #24C300",
"7	c #1FAB00",
"8	c #188E00",
"9	c #168700",
"0	c #043800",
"                                                                ",
"                                                                ",
"                                                                ",
"                                                                ",
"                                                                ",
"                                                                ",
"                                                                ",
"                                                                ",
"                                                                ",
"                                                                ",
"                                         .++.                   ",
"                                         +@@+                   ",
"             #$%&*=                      -@@-                   ",
"             +@@@@;.                     >@@>                   ",
"             >@@@@@+                     ,@@,                   ",
"             -@@'@@@+                    )@@)                   ",
"             -@@!,@@,.                   ,@@,                   ",
"             >@@>+@@@;~                  -@@{                   ",
"             ,@@, +@@@$                  ]@@^                   ",
"             )@@) ./@@(=                 _@@:                   ",
"             ,@@,  <_@@;                 /@@[                   ",
"             >@@>   *@@@                 _@@:                   ",
"             >@@>   =@@@@$               /@@$                   ",
"             ,@@,    +/@@;#              @@@=                   ",
"             )@@)     *@@@:~            =@@@                    ",
"             ,@@,      *@@@$            $@@/                    ",
"             >@@>      }/@@(=           :@@_                    ",
"             -@@-       <_@@;.          [@@/                    ",
"             -@@-        *@@@;#         :@@_                    ",
"             >@@>        =;@@@+         |@@1                    ",
"             ,@@,         .,@@/}        |@@1                    ",
"             )@@)          }/@@,.       :@@_                    ",
"             ,@@,           +@@@;#      [@@/                    ",
"             {@@-           #;@@@+      :@@_                    ",
"             ^@@]            .,@@/}     |@@1                    ",
"             $@@@             }/@@,.    2@@3                    ",
"             #@@@~             +@@@+    2@@3                    ",
"              @@@$             #;@@@+   |@@1                    ",
"              ]@@^              .,@@,.  :@@_                    ",
"              4@@5               +@@@;# [@@/                    ",
"              -@@-                +@@@+ :@@_                    ",
"              >@@>                .,@@/}|@@1                    ",
"              ,@@,                 }/@@,6@@1                    ",
"              7@@8                  +@@@9@@1                    ",
"              ;@@/                  #;@@0@@8                    ",
"              |@@1                   .@@@@@,                    ",
"              |@@1                    @@@@@)                    ",
"              $@@@                    :@@@@-                    ",
"              #@@@                    =(@@@5                    ",
"               @@@                     $@@@^                    ",
"                                       ~(@@$                    ",
"                                        =$$~                    ",
"                                                                ",
"                                                                ",
"                                                                ",
"                                                                ",
"                                                                ",
"                                                                ",
"                                                                ",
"                                                                ",
"                                                                ",
"                                                                ",
"                                                                ",
"                                                                "};
