/* XPM */
static char * portal2_frame_2_xpm[] = {
"64 64 4 1",
" 	c None",
".	c #CFED4B",
"+	c #A7F500",
"@	c #65D000",
"                                                                ",
"                                                                ",
"                                                                ",
"                                                                ",
"                                                                ",
"                                                                ",
"                                                                ",
"                                                                ",
"                                                                ",
"                                                                ",
"                                                                ",
"                                                                ",
"                           ..........                           ",
"                        .....+.++.++....+                       ",
"                      .....++.++++.++++...                      ",
"                      ..+....+.+..++.@+++.                      ",
"                     ................++@++.                     ",
"                    ++...+.........+..++@++.                    ",
"                   ++..... ..  ....  .+.+@.++                   ",
"                  .+...... .      .. .  +@+.++                  ",
"                 .++..  .            ...+++++.+                 ",
"                 ++..                     @..++                 ",
"                 .+..    @             .. @++..                 ",
"                ... .  +@@@@           ...+@..++                ",
"                .. ..+@@++++@            .@++...                ",
"                .+..+@++ .  +@            +@+++.                ",
"               .++++@+                    ++.+.+.               ",
"               .+++@+.                    +@.+ ..               ",
"               +.++@.                     .@+ ..+               ",
"               .++@..                     .+++ .+               ",
"               +++ ..                      +@  ..               ",
"               ++ ...                     .+@. .+               ",
"               .....                      .@   ..               ",
"               .++..                      @+   ..               ",
"               ++@...                     ++   ..               ",
"               ++...                           ..               ",
"               .++..                           .+               ",
"               ......                          ..               ",
"               .+.+..                          .+               ",
"               ++..+.                         ..+               ",
"                .++...                        .+                ",
"                ...+..     @                  .+                ",
"                 .++.+     +@                ..                 ",
"                 .+... .    +@@           .....                 ",
"                 .+++...     ++@          ...++                 ",
"                  ...++..    +.+..        .+.+                  ",
"                   +...+..    +.@++    .....+                   ",
"                    .++.....   ++@@.+....+@+                    ",
"                     .+..++ .. .++@@@..++.@                     ",
"                      ++.+....  .+++.@+.@@                      ",
"                      .+++.+.+..+...++.+++                      ",
"                        ++..+.+++.++..++                        ",
"                           +++++++.++                           ",
"                               +                                ",
"                                                                ",
"                                                                ",
"                                                                ",
"                                                                ",
"                                                                ",
"                                                                ",
"                                                                ",
"                                                                ",
"                                                                ",
"                                                                "};
