/* XPM */
static char * portal2_frame_5_xpm[] = {
"64 64 16 1",
" 	c None",
".	c #AEF40E",
"+	c #CFED4B",
"@	c #A7F500",
"#	c #C8EE3D",
"$	c #71D700",
"%	c #70D308",
"&	c #78D50E",
"*	c #BCF127",
"=	c #ABF408",
"-	c #BCE83D",
";	c #9CDF27",
">	c #B1F313",
",	c #65D000",
"'	c #A9F505",
")	c #9BEE00",
"                                                                ",
"                                                                ",
"                                                                ",
"                                                                ",
"                                                                ",
"                                                                ",
"                                                                ",
"                                                                ",
"                                                                ",
"                                                                ",
"                                                                ",
"                                                                ",
"                           ...+..+..+                           ",
"                        +...++@.@@.+...+                        ",
"                      ++..#+##.#+.+#+....+                      ",
"                      ....$$.$++++++++++.+                      ",
"                     .$..$@.%%&..++++++#+++                     ",
"                    ..@@#.*+=+=.&=.+++++#+..                    ",
"                   ...@#-;*;#--=%==+++++++..+@                  ",
"                  ....@-*##-;#*#+=%.+++++#+#.>                  ",
"                 .+@#+++#**+**;*-+++=+++++++..+                 ",
"                 +.@#-++++++@+@@;;+ ++++++*++@+                 ",
"                 ..###+++++  +++@;;*+++ +++++..                 ",
"                ..#-#+++++++    +@,@    ++++#+@+                ",
"                ++#+++++++      ++@,@   +++++#.+                ",
"                .##+++++           ,@     +*++#@                ",
"               ..#++*+ +          @@,     ++++#.+               ",
"               +@#+#@+ +           @,     +++#+..               ",
"               +.+#+++             ,@     +++##@+               ",
"               ++##+++            @,       ++#.$@               ",
"               '#+*+++           ,,@       ++++@.               ",
"              @.#+++++ +        ,@        ++#+%@@               ",
"               ++++++%     ,,,           ++++#$#@               ",
"               +++*+ %   @@@@         +   +++.$+@               ",
"               #+*++%%  @,,             +++++%)@@               ",
"               +#*+*&+  @,@     ,        ++=..=.@               ",
"               ++*+&&+  ,,      ,         =&$+-.+               ",
"               ++++.&++@,@      @,       @%%@#..+               ",
"               .#++.++@@,@       ,@    ++,@@#)@.+               ",
"                @*.&+++,,@       @,  ,+@,+##)@@@                ",
"                .+.&&+*,@,       @@,@,+@++#-.@..                ",
"                ++..++*;;++       **)##++#-@@..+                ",
"                 *.&&++;;*         @@,;;*;#@.++                 ",
"                 .#.#+*-;          *+** ;+@.#+.                 ",
"                 .#.+++-**+   +     +* **.@.++.                 ",
"                  @@@&##-**+  +++    +#++@++..                  ",
"                   .@.*#-##++    ++ +++==+.@.                   ",
"                    @@$##-#+++++++++=@@ ++..                    ",
"                     @&.#-#+#++++=+==@++.+.                     ",
"                      .@.@@+=+@+===.+#...@                      ",
"                      ..@.#-#.+.+......#++                      ",
"                        ...@@)@@@#+##+@+@                       ",
"                           ..+@-##)#.                           ",
"                                                                ",
"                                                                ",
"                                                                ",
"                                                                ",
"                                                                ",
"                                                                ",
"                                                                ",
"                                                                ",
"                                                                ",
"                                                                ",
"                                                                "};
