/* XPM */
static char * portal1_frame_4_xpm[] = {
"64 64 15 1",
" 	c None",
".	c #3012B4",
"+	c #4C0CE8",
"@	c #580AFF",
"#	c #3C10CB",
"$	c #460EDE",
"%	c #7926E8",
"&	c #8624FF",
"*	c #500CF0",
"=	c #8529F0",
"-	c #6B22DE",
";	c #511BCB",
">	c #6C15FF",
",	c #9A2FFF",
"'	c #550BF9",
"                                                                ",
"                                                                ",
"                                                                ",
"                                                                ",
"                                                                ",
"                                                                ",
"                                                                ",
"                                                                ",
"                                                                ",
"                                                                ",
"                                                                ",
"                                                                ",
"                           .+.+++++++                           ",
"                        ++.@@.#.#..+.++.                        ",
"                      +++@@@.......##.+++.                      ",
"                      +.#@+.....$.$..#.@.+                      ",
"                     +.#%@+++.+......#$#...                     ",
"                    ++&%%%%++**+......$.#.+.                    ",
"                   .+@@.*=.*.***. .....$.##+.                   ",
"                  @++@@. ##.#..+.*.......$#+&.                  ",
"                 ++@@@-#;;#-$.....+  .....#@@@.                 ",
"                 %@@@#;$.$$$@--- .   ....$.#>@+                 ",
"                 +@@@#;...@..@@$       .....#@+                 ",
"                ++;#......    ..,     . ..###>@.                ",
"                +##......     . @,    . ...#.@&+                ",
"                .###.....       @@,      ....>&@                ",
"               ++#.;....         ,        ...;&@.               ",
"               +@#.....          ,       ..##@>@+               ",
"               #+.....           ,        ...>@@+               ",
"               .@.#...                    ...>@@+               ",
"               .#.#..                    ...+=>@+               ",
"               +#.#...                 ....*+=#++               ",
"               #.#....                   ..%&&+++               ",
"               ..#....                    .=@>@@+               ",
"               .##....                    ,@@;@.+               ",
"               @#....     ,             ..*##.@#+               ",
"               +.....    ,              .@*$;#+#+               ",
"               +..$.. .  ,          , ,,@@.-#+*++               ",
"               +.#.$.%.  ,          ,*,...-##@.+.               ",
"                #.$..%..@,             . ..@@+.+                ",
"                .$$..%..@ .          ,,,--.@+*..                ",
"                .#...+.. ,,.         .   $.*+.+.                ",
"                 #..@+..$@$.         . ...@...+                 ",
"                 #..++....-. .    .     ..*...+                 ",
"                 @#..+..$.-..    ..   ......++.                 ",
"                  '..+=..$;..  ..   ....@*+++.                  ",
"                   @$@&...#$$...  ...****.+..                   ",
"                    +@+.%.###...... **@.+...                    ",
"                     @@+&$$;#....*..***+.+.                     ",
"                      @@+$&#;#..**.+...+++                      ",
"                      +@@@%+&#.+...++.@.+.                      ",
"                       @+++@+@;>.#@>.++.                        ",
"                           ++++++.+..                           ",
"                                                                ",
"                                                                ",
"                                                                ",
"                                                                ",
"                                                                ",
"                                                                ",
"                                                                ",
"                                                                ",
"                                                                ",
"                                                                ",
"                                                                "};
