/* XPM */
static char * portal1_frame_6_xpm[] = {
"64 64 16 1",
" 	c None",
".	c #560AFC",
"+	c #3012B4",
"@	c #972EFF",
"#	c #580AFF",
"$	c #3212B7",
"%	c #962EFC",
"&	c #9A2FFF",
"*	c #982EFE",
"=	c #4C19C8",
"-	c #3B10C8",
";	c #3413B7",
">	c #570AFE",
",	c #480DE1",
"'	c #3F0FCF",
")	c #5B0BFF",
"                                                                ",
"                                                                ",
"                                                                ",
"                                                                ",
"                                                                ",
"                                                                ",
"                                                                ",
"                                                                ",
"                                                                ",
"                                                                ",
"                                                                ",
"                                                                ",
"                              ..... .                           ",
"                          ....+..+.+.+.                         ",
"                       ....@..@#+#$#..+..                       ",
"                       .%..#..#&@&#+$+...                       ",
"                     .....#$$#$#%**+.+++$...                    ",
"                    +++#+$#=-=;+.+>..+++++...                   ",
"                   ....++;++$$$;$;+.%.++++++.,                  ",
"                   +.++$=+++---=;$;>>>+++++$++.                 ",
"                  +#++;$$$++++-+---$>>*+++++++.                 ",
"                  ..$$++- +  +   + =;+>+++++$+.                 ",
"                 .++$++++ + ++++   ==++> +++++#.                ",
"                .+$+$++- ++        -=++>+++++++.                ",
"                +++++-  ++          -  +>++++-+.                ",
"                .#+$-+++                 + +++$.                ",
"               ..+$+-+++                  +++++.#               ",
"               .++++- +                    +++++.               ",
"               ++++++                      ++++.#               ",
"               +$++-+% +                 + ++++.%               ",
"               '++-- *                      ++$+#               ",
"               +++++%*+                   + ++++#               ",
"               ++-+@%+                     +++++@               ",
"               ++-.%$;                      +++#)               ",
"               +-+#+;=-                    + ++%@               ",
"               ++-%$;-                 + + ++$+.#               ",
"               +$+@;=+                 +   +++.&#               ",
"               .+.@;--                     +++@)#               ",
"               ..#$;$-                   ++++..;#               ",
"                .$@;$++++                +>>.%>#+               ",
"                .#;$$-++               +++*%@.+.                ",
"                ..$;$+-++        - &&++&&*>>$+;.                ",
"                 .@=$$++ +       -#*+##+>#+$##+                 ",
"                 .#)-+$++          ; $+++$$)#).                 ",
"                  #.;$+++++       - == +-$;.$#.                 ",
"                  #@)$+$+++ +++   +-- =-;)###+                  ",
"                   ..)@+++++       - -;+##.++                   ",
"                    .##.+++++ ++++++$$$.#.$+                    ",
"                     ##;#.++++>+++++>>>#+++                     ",
"                      ...$.+.>>#>>>..+++..                      ",
"                       .#)$.+$..++++++++.                       ",
"                        .+.;#.+#......#.,                       ",
"                           #$$#+$$++.                           ",
"                                                                ",
"                                                                ",
"                                                                ",
"                                                                ",
"                                                                ",
"                                                                ",
"                                                                ",
"                                                                ",
"                                                                ",
"                                                                ",
"                                                                "};
