/* XPM */
static char * portal2_frame_3_xpm[] = {
"64 64 14 1",
" 	c None",
".	c #C0F02E",
"+	c #CFED4B",
"@	c #A7F500",
"#	c #B6F21D",
"$	c #B0F311",
"%	c #A7E22E",
"&	c #BAF123",
"*	c #97DE23",
"=	c #7EDE00",
"-	c #8EE700",
";	c #8DDB1D",
">	c #7CD611",
",	c #65D000",
"                                                                ",
"                                                                ",
"                                                                ",
"                                                                ",
"                                                                ",
"                                                                ",
"                                                                ",
"                                                                ",
"                                                                ",
"                                                                ",
"                                                                ",
"                                                                ",
"                           .+...+..+.                           ",
"                       @.+++.++.+++...++                        ",
"                      ++.+@+#+++#+#+#+..++                      ",
"                      +@@@+++++$+##$++@#.+                      ",
"                     .+.@++++$+ +++$$$.#+@.                     ",
"                    ..@+++++++ +++++++$##@@.                    ",
"                   ..#..%& ..+++ ++++++++#@..                   ",
"                  +.#+..*&&.&&+.  ++++$+++=@@.                  ",
"                 +.#+*%*&&++&&+      +  $+#@-..                 ",
"                 ..--+%+#+#          ++ +++=-@@                 ",
"                 .@-@+##;;$>>>          +++;-@@                 ",
"                +.@.@$;;$$$@@$,,       ++++#=@.@                ",
"                +.@@$;+$@  +  @@       +  ##=@#@                ",
"                .@@#$;         @,         ++=@#.                ",
"               .%@@#;+          ,         ++%=+@@               ",
"               ..@++++          ,         +..,#..               ",
"               ..;++++          ,         +.--.@.               ",
"               .###++           ,          %@=@+.               ",
"               +##;++                     +%@;@##               ",
"               .@+++++                    *-;#+.#               ",
"               .@#++                      *.$;#..               ",
"               ..+++                      +.>#&+.               ",
"               #@+#++                     ++$##++               ",
"               +#+#++                     +#>@&+.               ",
"               ..#++       ,              +> .&+.               ",
"               .#+#++                ,,   >$ &&.@               ",
"               .+##++                  ,,,$#+&++.               ",
"                ++$$+                     ++ &++                ",
"                +#+++   +                 ++& +.                ",
"                .+#+$+ ++ $                   .+                ",
"                 ++#+$** +                +& ..                 ",
"                 .+#+$+* + ,,            +&&+.+                 ",
"                 .##$$+&++ @$@+          &+.+.+                 ",
"                  ++#++.++ +>$+        && .+..                  ",
"                   +#+$@.%+$+>$+       &+.+..                   ",
"                    @#++.*++$;#$ +  +&+&++.+                    ",
"                     @++.%%++#;#+++++&+...@                     ",
"                      +$$.-+*+$;##++.++.+#                      ",
"                      @@.@..-$-#;#+.@#@=++                      ",
"                        @@@@.$%.-@;===#@                        ",
"                           @@@%@.@@.@                           ",
"                                                                ",
"                                                                ",
"                                                                ",
"                                                                ",
"                                                                ",
"                                                                ",
"                                                                ",
"                                                                ",
"                                                                ",
"                                                                ",
"                                                                "};
