/* XPM */
static char * portal2_frame_1_xpm[] = {
"64 64 5 1",
" 	c None",
".	c #CFED4B",
"+	c #A7F500",
"@	c #65D000",
"#	c #B5F21A",
"                                                                ",
"                                                                ",
"                                                                ",
"                                                                ",
"                                                                ",
"                                                                ",
"                                                                ",
"                                                                ",
"                                                                ",
"                                                                ",
"                                                                ",
"                                                                ",
"                          ...+.++++...                          ",
"                        .+.+..++++@+++.#                        ",
"                      ....+.+++++++@+++++.                      ",
"                     ..+++++.......++++.++.                     ",
"                     ..+.............+@++++                     ",
"                    +++..............++@..++                    ",
"                   .++.................@@+..+                   ",
"                  +............  ......+@+.++.                  ",
"                 .+........  . .........@@.++.+                 ",
"                 ...........  .  . .....+@+..++                 ",
"                 +.......... .    .  ....++...+                 ",
"                .........          .. ...+@....+                ",
"                ......@ @.          . ....+....+                ",
"                .....@@@  .            ...+....+                ",
"               .+..+.@...              .........+               ",
"               .+.+@+...               . .......+               ",
"               .+++@...                 ... ....+               ",
"               .++@....                   .......               ",
"               +++@...                    . .....               ",
"               ++....                      ......               ",
"               ++.....                     . ...+               ",
"               ++@....                      .....               ",
"               ++..... .                    .....               ",
"               ++.... .                    ......               ",
"               ++.... .                   ......+               ",
"               .++... .                     ...++               ",
"               .+@....                 .  ......+               ",
"                ++....  .                . ....+                ",
"                +++......  .            .. ....@                ",
"                .+.+....... .        .   ......+                ",
"                 ++.+.... .  + ....   ........+                 ",
"                 ++.+..... .  +@@@..........+@+                 ",
"                 .++.........  ...+..+......+@+                 ",
"                  +.++++...... ....@@@.+..+@@+                  ",
"                   .....+..........+.@@@@++++                   ",
"                    .+++++...........++.++..                    ",
"                     ...+.+............+...                     ",
"                     ++.+++++..+++.++.+.+.+                     ",
"                      ...+...+++++++++.+++                      ",
"                        +++++.....+..+++                        ",
"                          .++..+++....                          ",
"                              +++                               ",
"                               +                                ",
"                                                                ",
"                                                                ",
"                                                                ",
"                                                                ",
"                                                                ",
"                                                                ",
"                                                                ",
"                                                                ",
"                                                                "};
