/* XPM */
static char * south_wall_xpm[] = {
"64 64 32 1",
" 	c #FDFF00",
".	c #FAFC00",
"+	c #E6E800",
"@	c #CACC00",
"#	c #ABAC00",
"$	c #767700",
"%	c #6A6B00",
"&	c #363700",
"*	c #616200",
"=	c #575800",
"-	c #BABC00",
";	c #DFE100",
">	c #606000",
",	c #000000",
"'	c #E9EB00",
")	c #D1D200",
"!	c #797A00",
"~	c #C8CA00",
"{	c #A9AA00",
"]	c #6D6E00",
"^	c #C9CB00",
"/	c #F2F400",
"(	c #D3D500",
"_	c #4B4C00",
":	c #DCDD00",
"<	c #565600",
"[	c #888900",
"}	c #A2A300",
"|	c #B7B800",
"1	c #686900",
"2	c #5F6000",
"3	c #A3A500",
"                                                                ",
"                                                                ",
"                                                                ",
"                                                                ",
"                                                                ",
"                                                                ",
"                                                                ",
"                                                                ",
"                                                                ",
"                                                                ",
"                             .+@#$%&*=-;                        ",
"                          ;-$>,,,,,,,,,-                        ",
"                       '),,,,,,,,,,,,,,-                        ",
"                       !,,,,,,,>$#@)~{-;                        ",
"                      !,,,,=#@+.                                ",
"                    +,,,,]'                                     ",
"                   ^],,,,+                                      ",
"                   {,,,!                                        ",
"                   ,,,-                                         ",
"                  /,,,/                                         ",
"                  +,,&                                          ",
"                  (,,_                                          ",
"                  :,,</                                         ",
"                  +,,,-                                         ",
"                  .{,,=^                                        ",
"                   ^=,,[;                                       ",
"                    -,,,{/                                      ",
"                    /{,,,-                                      ",
"                     ;[,,,!                                     ",
"                      ^],,,,+                                   ",
"                       +,,,,]^                                  ",
"                         !,,,=}                                 ",
"                          -,,,=-                                ",
"                          /),,,,-/                              ",
"                           .+,,,,+                              ",
"                             -=,,,+                             ",
"                              ^=,,{/                            ",
"                               !,,,+                            ",
"                                ],,]                            ",
"                                |,,1.                           ",
"                                +,,,+                           ",
"                                 2,,:                           ",
"                                 _,,(                           ",
"                                -,,,+                           ",
"                               ;[,,[/                           ",
"                              ;[,,,-                            ",
"                             ^[,,,-                             ",
"                           .+],,,[;                             ",
"                          /),,,,{;                              ",
"                         -[,,,=-/                               ",
"                    -3[=,,,,,=}                                 ",
"                    ,,,,,,,,!^                                  ",
"                    ,,,,,,{-                                    ",
"                    -3[-;                                       ",
"                                                                ",
"                                                                ",
"                                                                ",
"                                                                ",
"                                                                ",
"                                                                ",
"                                                                ",
"                                                                ",
"                                                                ",
"                                                                "};
