/* XPM */
static char * test_door_xpm[] = {
"64 16 256 2",
"  	c #000000",
". 	c #0000FF",
"+ 	c #00FF00",
"@ 	c #FF0000",
"# 	c #00FFFF",
"$ 	c #FFFF00",
"% 	c #FF00FF",
"& 	c #FFFFFF",
"* 	c #7B7B7B",
"= 	c #7B7B7B",
"- 	c #7B7B7B",
"; 	c #7B7B7B",
"> 	c #7B7B7B",
", 	c #7B7B7B",
"' 	c #7B7B7B",
") 	c #7B7B7B",
"! 	c #7B7B7B",
"~ 	c #7B7B7B",
"{ 	c #7B7B7B",
"] 	c #7B7B7B",
"^ 	c #7B7B7B",
"/ 	c #7B7B7B",
"( 	c #7B7B7B",
"_ 	c #7B7B7B",
": 	c #7B7B7B",
"< 	c #7B7B7B",
"[ 	c #7B7B7B",
"} 	c #7B7B7B",
"| 	c #7B7B7B",
"1 	c #7B7B7B",
"2 	c #7B7B7B",
"3 	c #7B7B7B",
"4 	c #7B7B7B",
"5 	c #7B7B7B",
"6 	c #7B7B7B",
"7 	c #7B7B7B",
"8 	c #7B7B7B",
"9 	c #7B7B7B",
"0 	c #7B7B7B",
"a 	c #7B7B7B",
"b 	c #7B7B7B",
"c 	c #7B7B7B",
"d 	c #7B7B7B",
"e 	c #7B7B7B",
"f 	c #7B7B7B",
"g 	c #7B7B7B",
"h 	c #7B7B7B",
"i 	c #7B7B7B",
"j 	c #7B7B7B",
"k 	c #7B7B7B",
"l 	c #7B7B7B",
"m 	c #7B7B7B",
"n 	c #7B7B7B",
"o 	c #7B7B7B",
"p 	c #7B7B7B",
"q 	c #7B7B7B",
"r 	c #7B7B7B",
"s 	c #7B7B7B",
"t 	c #7B7B7B",
"u 	c #7B7B7B",
"v 	c #7B7B7B",
"w 	c #7B7B7B",
"x 	c #7B7B7B",
"y 	c #7B7B7B",
"z 	c #7B7B7B",
"A 	c #7B7B7B",
"B 	c #7B7B7B",
"C 	c #7B7B7B",
"D 	c #7B7B7B",
"E 	c #7B7B7B",
"F 	c #7B7B7B",
"G 	c #7B7B7B",
"H 	c #7B7B7B",
"I 	c #7B7B7B",
"J 	c #7B7B7B",
"K 	c #7B7B7B",
"L 	c #7B7B7B",
"M 	c #7B7B7B",
"N 	c #7B7B7B",
"O 	c #7B7B7B",
"P 	c #7B7B7B",
"Q 	c #7B7B7B",
"R 	c #7B7B7B",
"S 	c #7B7B7B",
"T 	c #7B7B7B",
"U 	c #7B7B7B",
"V 	c #7B7B7B",
"W 	c #7B7B7B",
"X 	c #7B7B7B",
"Y 	c #7B7B7B",
"Z 	c #7B7B7B",
"` 	c #7B7B7B",
" .	c #7B7B7B",
"..	c #7B7B7B",
"+.	c #7B7B7B",
"@.	c #7B7B7B",
"#.	c #7B7B7B",
"$.	c #7B7B7B",
"%.	c #7B7B7B",
"&.	c #7B7B7B",
"*.	c #7B7B7B",
"=.	c #7B7B7B",
"-.	c #7B7B7B",
";.	c #7B7B7B",
">.	c #7B7B7B",
",.	c #7B7B7B",
"'.	c #7B7B7B",
").	c #7B7B7B",
"!.	c #7B7B7B",
"~.	c #7B7B7B",
"{.	c #7B7B7B",
"].	c #7B7B7B",
"^.	c #7B7B7B",
"/.	c #7B7B7B",
"(.	c #7B7B7B",
"_.	c #7B7B7B",
":.	c #7B7B7B",
"<.	c #7B7B7B",
"[.	c #7B7B7B",
"}.	c #7B7B7B",
"|.	c #7B7B7B",
"1.	c #7B7B7B",
"2.	c #7B7B7B",
"3.	c #7B7B7B",
"4.	c #7B7B7B",
"5.	c #7B7B7B",
"6.	c #7B7B7B",
"7.	c #7B7B7B",
"8.	c #7B7B7B",
"9.	c #7B7B7B",
"0.	c #7B7B7B",
"a.	c #7B7B7B",
"b.	c #7B7B7B",
"c.	c #7B7B7B",
"d.	c #7B7B7B",
"e.	c #7B7B7B",
"f.	c #7B7B7B",
"g.	c #7B7B7B",
"h.	c #7B7B7B",
"i.	c #7B7B7B",
"j.	c #7B7B7B",
"k.	c #7B7B7B",
"l.	c #7B7B7B",
"m.	c #7B7B7B",
"n.	c #7B7B7B",
"o.	c #7B7B7B",
"p.	c #7B7B7B",
"q.	c #7B7B7B",
"r.	c #7B7B7B",
"s.	c #7B7B7B",
"t.	c #7B7B7B",
"u.	c #7B7B7B",
"v.	c #7B7B7B",
"w.	c #7B7B7B",
"x.	c #7B7B7B",
"y.	c #7B7B7B",
"z.	c #7B7B7B",
"A.	c #7B7B7B",
"B.	c #7B7B7B",
"C.	c #7B7B7B",
"D.	c #7B7B7B",
"E.	c #7B7B7B",
"F.	c #7B7B7B",
"G.	c #7B7B7B",
"H.	c #7B7B7B",
"I.	c #7B7B7B",
"J.	c #7B7B7B",
"K.	c #7B7B7B",
"L.	c #7B7B7B",
"M.	c #7B7B7B",
"N.	c #7B7B7B",
"O.	c #7B7B7B",
"P.	c #7B7B7B",
"Q.	c #7B7B7B",
"R.	c #7B7B7B",
"S.	c #7B7B7B",
"T.	c #7B7B7B",
"U.	c #7B7B7B",
"V.	c #7B7B7B",
"W.	c #7B7B7B",
"X.	c #7B7B7B",
"Y.	c #7B7B7B",
"Z.	c #7B7B7B",
"`.	c #7B7B7B",
" +	c #7B7B7B",
".+	c #7B7B7B",
"++	c #7B7B7B",
"@+	c #7B7B7B",
"#+	c #7B7B7B",
"$+	c #7B7B7B",
"%+	c #7B7B7B",
"&+	c #7B7B7B",
"*+	c #7B7B7B",
"=+	c #7B7B7B",
"-+	c #7B7B7B",
";+	c #7B7B7B",
">+	c #7B7B7B",
",+	c #7B7B7B",
"'+	c #7B7B7B",
")+	c #7B7B7B",
"!+	c #7B7B7B",
"~+	c #7B7B7B",
"{+	c #7B7B7B",
"]+	c #7B7B7B",
"^+	c #7B7B7B",
"/+	c #7B7B7B",
"(+	c #7B7B7B",
"_+	c #7B7B7B",
":+	c #7B7B7B",
"<+	c #7B7B7B",
"[+	c #7B7B7B",
"}+	c #7B7B7B",
"|+	c #7B7B7B",
"1+	c #7B7B7B",
"2+	c #7B7B7B",
"3+	c #7B7B7B",
"4+	c #7B7B7B",
"5+	c #7B7B7B",
"6+	c #7B7B7B",
"7+	c #7B7B7B",
"8+	c #7B7B7B",
"9+	c #7B7B7B",
"0+	c #7B7B7B",
"a+	c #7B7B7B",
"b+	c #7B7B7B",
"c+	c #7B7B7B",
"d+	c #7B7B7B",
"e+	c #7B7B7B",
"f+	c #7B7B7B",
"g+	c #7B7B7B",
"h+	c #7B7B7B",
"i+	c #7B7B7B",
"j+	c #7B7B7B",
"k+	c #7B7B7B",
"l+	c #7B7B7B",
"m+	c #7B7B7B",
"n+	c #525A52",
"o+	c #BDC5B4",
"p+	c #83837B",
"q+	c #ACB4A4",
"r+	c #5A6252",
"s+	c #8B9483",
"t+	c #737B73",
"u+	c #838B7B",
"v+	c #D5E6D5",
"w+	c #9CA494",
"x+	c #C5CDC5",
"y+	c #ACB4AC",
"z+	c #4A5241",
"A+	c #949C94",
"B+	c #626A62",
"C+	c #BDCDBD",
"D+	c #73736A",
"E+	c #394131",
"F+	c #A4AC9C",
"G+	c #DEEEDE",
"E+E+E+E+E+E+E+E+E+E+E+E+E+E+E+E+E+E+E+E+E+E+E+E+E+E+E+E+E+E+E+E+E+E+E+E+E+E+E+E+E+E+E+E+E+E+E+E+E+E+E+E+E+E+E+E+E+E+E+E+E+E+E+E+",
"E+D+t+B+z+B+z+t+F+p+z+B+z+p+F+F+z+p+z+p+F+p+z+B+z+p+F+p+z+B+z+z+z+z+B+z+p+F+p+z+B+z+p+F+p+z+p+z+F+F+p+z+B+z+p+F+t+z+B+z+B+t+D+E+",
"E+D+A+A+B+z+r+s+y+x+t+n+p+G+G+G+q+n+q+G+G+G+p+n+p+G+G+G+p+n+p+z+z+p+n+p+G+G+G+p+n+p+G+G+G+q+n+q+G+G+G+p+n+t+x+y+s+r+z+B+A+A+D+E+",
"E+r+A+t+z+B+z+D+x+w+r+p+r+q+G+q+r+q+r+G+G+q+r+p+r+q+G+q+r+p+r+z+z+r+p+r+q+G+q+r+p+r+q+G+G+r+q+r+q+G+q+r+p+r+w+x+D+z+B+z+t+A+r+E+",
"E+z+B+z+D+p+t+z+t+n+F+G+q+r+p+r+q+G+G+r+q+r+q+G+q+r+A+r+q+G+q+z+z+q+G+q+r+A+r+q+G+q+r+q+r+G+G+q+r+p+r+q+G+F+n+t+z+t+p+D+z+B+z+E+",
"E+n+z+B+A+u+A+D+n+t+v+G+G+p+B+A+G+G+G+q+D+q+G+G+G+A+D+A+G+G+G+n+n+G+G+G+A+D+A+G+G+G+q+D+q+G+G+G+A+B+p+G+G+v+t+n+D+A+u+A+B+z+n+E+",
"E+z+B+z+t+u+D+z+D+n+w+v+q+r+A+B+q+G+q+D+q+D+G+G+q+D+q+p+q+G+q+z+z+q+G+q+p+q+D+q+G+G+D+q+D+q+G+q+B+A+r+q+v+w+n+D+z+D+u+t+z+B+z+E+",
"E+r+A+t+z+r+z+D+x+w+r+s+r+q+G+q+B+q+D+q+G+G+s+C+s+q+G+q+A+C+w+z+z+w+C+A+q+G+q+s+C+s+G+G+q+D+q+B+q+G+q+r+s+r+w+x+D+z+r+z+t+A+r+E+",
"E+B+A+w+r+z+r+s+x+v+u+r+A+G+G+G+q+p+q+G+G+G+C+A+C+G+G+G+o+A+C+z+z+C+A+o+G+G+G+C+A+C+G+G+G+q+p+q+G+G+G+A+r+u+v+x+s+r+z+r+w+A+B+E+",
"E+r+A+t+z+r+z+D+x+w+r+s+r+q+G+q+B+q+D+q+G+G+s+C+s+q+G+q+A+C+A+z+z+A+C+A+q+G+q+s+C+s+G+G+q+D+q+B+q+G+q+r+s+r+w+x+D+z+r+z+t+A+r+E+",
"E+z+B+z+t+u+D+z+D+n+w+v+q+r+A+B+q+G+q+B+q+B+G+G+q+B+q+p+q+G+q+z+z+q+G+q+p+q+B+q+G+G+B+q+B+q+G+q+B+A+r+q+v+w+n+D+z+D+u+t+z+B+z+E+",
"E+n+z+B+A+u+A+D+n+t+v+G+G+A+B+A+G+G+G+q+B+q+G+G+G+A+B+A+G+G+G+n+n+G+G+G+A+B+A+G+G+G+q+B+q+G+G+G+A+B+A+G+G+v+t+n+D+A+u+A+B+z+n+E+",
"E+z+B+z+D+p+t+z+t+n+F+G+q+r+A+r+q+G+G+r+q+r+q+G+q+r+A+r+q+G+q+z+z+q+G+q+r+A+r+q+G+q+r+q+r+G+G+q+r+A+r+q+G+F+n+t+z+t+p+D+z+B+z+E+",
"E+r+A+t+z+B+z+D+x+w+n+p+n+q+G+q+n+q+n+G+G+q+n+p+n+q+G+q+n+p+n+z+z+n+p+n+q+G+q+n+p+n+q+G+G+n+q+n+q+G+q+n+p+n+w+x+D+z+B+z+t+A+r+E+",
"E+D+A+A+B+z+r+s+y+x+t+z+p+G+G+G+q+z+q+G+G+G+p+z+p+G+G+G+p+z+p+z+z+p+z+p+G+G+G+p+z+p+G+G+G+q+z+q+G+G+G+p+z+t+x+y+s+r+z+B+A+A+D+E+",
"E+E+E+E+E+E+E+E+E+E+E+E+E+E+E+E+E+E+E+E+E+E+E+E+E+E+E+E+E+E+E+E+E+E+E+E+E+E+E+E+E+E+E+E+E+E+E+E+E+E+E+E+E+E+E+E+E+E+E+E+E+E+E+E+"};
