/* XPM */
static char *wall_lab0[] = {
/* columns rows colors chars-per-pixel */
"64 64 256 2 ",
"   c black",
".  c blue",
"X  c green",
"o  c red",
"O  c cyan",
"+  c yellow",
"@  c magenta",
"#  c white",
"$  c #7B7B7B",
"%  c #7B7B7B",
"&  c #7B7B7B",
"*  c #7B7B7B",
"=  c #7B7B7B",
"-  c #7B7B7B",
";  c #7B7B7B",
":  c #7B7B7B",
">  c #7B7B7B",
",  c #7B7B7B",
"<  c #7B7B7B",
"1  c #7B7B7B",
"2  c #7B7B7B",
"3  c #7B7B7B",
"4  c #7B7B7B",
"5  c #7B7B7B",
"6  c #7B7B7B",
"7  c #7B7B7B",
"8  c #7B7B7B",
"9  c #7B7B7B",
"0  c #7B7B7B",
"q  c #7B7B7B",
"w  c #7B7B7B",
"e  c #7B7B7B",
"r  c #7B7B7B",
"t  c #7B7B7B",
"y  c #7B7B7B",
"u  c #7B7B7B",
"i  c #7B7B7B",
"p  c #7B7B7B",
"a  c #7B7B7B",
"s  c #7B7B7B",
"d  c #7B7B7B",
"f  c #7B7B7B",
"g  c #7B7B7B",
"h  c #7B7B7B",
"j  c #7B7B7B",
"k  c #7B7B7B",
"l  c #7B7B7B",
"z  c #7B7B7B",
"x  c #7B7B7B",
"c  c #7B7B7B",
"v  c #7B7B7B",
"b  c #7B7B7B",
"n  c #7B7B7B",
"m  c #7B7B7B",
"M  c #7B7B7B",
"N  c #7B7B7B",
"B  c #7B7B7B",
"V  c #7B7B7B",
"C  c #7B7B7B",
"Z  c #7B7B7B",
"A  c #7B7B7B",
"S  c #7B7B7B",
"D  c #7B7B7B",
"F  c #7B7B7B",
"G  c #7B7B7B",
"H  c #7B7B7B",
"J  c #7B7B7B",
"K  c #7B7B7B",
"L  c #7B7B7B",
"P  c #7B7B7B",
"I  c #7B7B7B",
"U  c #7B7B7B",
"Y  c #7B7B7B",
"T  c #7B7B7B",
"R  c #7B7B7B",
"E  c #7B7B7B",
"W  c #7B7B7B",
"Q  c #7B7B7B",
"!  c #7B7B7B",
"~  c #7B7B7B",
"^  c #7B7B7B",
"/  c #7B7B7B",
"(  c #7B7B7B",
")  c #7B7B7B",
"_  c #7B7B7B",
"`  c #7B7B7B",
"'  c #7B7B7B",
"]  c #7B7B7B",
"[  c #7B7B7B",
"{  c #7B7B7B",
"}  c #7B7B7B",
"|  c #7B7B7B",
" . c #7B7B7B",
".. c #7B7B7B",
"X. c #7B7B7B",
"o. c #7B7B7B",
"O. c #7B7B7B",
"+. c #7B7B7B",
"@. c #7B7B7B",
"#. c #7B7B7B",
"$. c #7B7B7B",
"%. c #7B7B7B",
"&. c #7B7B7B",
"*. c #7B7B7B",
"=. c #7B7B7B",
"-. c #7B7B7B",
";. c #7B7B7B",
":. c #7B7B7B",
">. c #7B7B7B",
",. c #7B7B7B",
"<. c #7B7B7B",
"1. c #7B7B7B",
"2. c #7B7B7B",
"3. c #7B7B7B",
"4. c #7B7B7B",
"5. c #7B7B7B",
"6. c #7B7B7B",
"7. c #7B7B7B",
"8. c #7B7B7B",
"9. c #7B7B7B",
"0. c #7B7B7B",
"q. c #7B7B7B",
"w. c #7B7B7B",
"e. c #7B7B7B",
"r. c #7B7B7B",
"t. c #7B7B7B",
"y. c #7B7B7B",
"u. c #7B7B7B",
"i. c #7B7B7B",
"p. c #7B7B7B",
"a. c #7B7B7B",
"s. c #7B7B7B",
"d. c #7B7B7B",
"f. c #7B7B7B",
"g. c #7B7B7B",
"h. c #7B7B7B",
"j. c #7B7B7B",
"k. c #7B7B7B",
"l. c #7B7B7B",
"z. c #7B7B7B",
"x. c #7B7B7B",
"c. c #7B7B7B",
"v. c #7B7B7B",
"b. c #7B7B7B",
"n. c #7B7B7B",
"m. c #7B7B7B",
"M. c #7B7B7B",
"N. c #7B7B7B",
"B. c #7B7B7B",
"V. c #7B7B7B",
"C. c #7B7B7B",
"Z. c #7B7B7B",
"A. c #7B7B7B",
"S. c #7B7B7B",
"D. c #7B7B7B",
"F. c #7B7B7B",
"G. c #7B7B7B",
"H. c #7B7B7B",
"J. c #7B7B7B",
"K. c #7B7B7B",
"L. c #7B7B7B",
"P. c #7B7B7B",
"I. c #7B7B7B",
"U. c #7B7B7B",
"Y. c #7B7B7B",
"T. c #7B7B7B",
"R. c #7B7B7B",
"E. c #7B7B7B",
"W. c #7B7B7B",
"Q. c #7B7B7B",
"!. c #7B7B7B",
"~. c #7B7B7B",
"^. c #7B7B7B",
"/. c #7B7B7B",
"(. c #7B7B7B",
"). c #7B7B7B",
"_. c #7B7B7B",
"`. c #7B7B7B",
"'. c #7B7B7B",
"]. c #7B7B7B",
"[. c #7B7B7B",
"{. c #7B7B7B",
"}. c #7B7B7B",
"|. c #7B7B7B",
" X c #7B7B7B",
".X c #7B7B7B",
"XX c #7B7B7B",
"oX c #7B7B7B",
"OX c #7B7B7B",
"+X c #7B7B7B",
"@X c #7B7B7B",
"#X c #7B7B7B",
"$X c #7B7B7B",
"%X c #7B7B7B",
"&X c #7B7B7B",
"*X c #7B7B7B",
"=X c #7B7B7B",
"-X c #7B7B7B",
";X c #7B7B7B",
":X c #7B7B7B",
">X c #7B7B7B",
",X c #7B7B7B",
"<X c #7B7B7B",
"1X c #7B7B7B",
"2X c #7B7B7B",
"3X c #7B7B7B",
"4X c #7B7B7B",
"5X c #7B7B7B",
"6X c #7B7B7B",
"7X c #7B7B7B",
"8X c #7B7B7B",
"9X c #7B7B7B",
"0X c #7B7B7B",
"qX c #7B7B7B",
"wX c #7B7B7B",
"eX c #7B7B7B",
"rX c #7B7B7B",
"tX c #7B7B7B",
"yX c #7B7B7B",
"uX c #7B7B7B",
"iX c #7B7B7B",
"pX c #7B7B7B",
"aX c #7B7B7B",
"sX c #7B7B7B",
"dX c #7B7B7B",
"fX c #7B7B7B",
"gX c #7B7B7B",
"hX c #7B7B7B",
"jX c #7B7B7B",
"kX c #7B7B7B",
"lX c #7B7B7B",
"zX c #7B7B7B",
"xX c #7B7B7B",
"cX c #7B7B7B",
"vX c #7B7B7B",
"bX c #7B7B7B",
"nX c #7B7B7B",
"mX c #7B7B7B",
"MX c #7B7B7B",
"NX c #7B7B7B",
"BX c #7B7B7B",
"VX c #7B7B7B",
"CX c #7B7B7B",
"ZX c #7B7B7B",
"AX c #7B7B7B",
"SX c #7B7B7B",
"DX c #7B7B7B",
"FX c #626262",
"GX c #5A5A5A",
"HX c #838383",
"JX c #414141",
"KX c gray32",
"LX c gray45",
"PX c #7B7B7B",
"IX c #6A6A6A",
"UX c gray58",
/* pixels */
"GXGXGXGXGXGXGXGXKXJXGXGXGXGXGXGXGXGXGXGXGXGXGXGXGXGXGXGXKXGXGXGXGXGXGXKXGXGXGXKXKXGXGXKXGXGXGXGXGXGXGXGXGXKXGXGXKXGXGXKXGXGXGXGX",
"GXUXUXUXUXUXUXUXUXUXUXUXUXUXUXUXUXUXUXUXUXUXUXUXUXUXUXUXUXUXUXUXUXUXUXUXUXUXUXUXUXUXUXUXUXUXUXUXUXUXUXUXUXUXUXUXUXUXUXUXUXUXUXGX",
"GX$ LXLXLXLX$ $ LXLXLX$ GX$ LX$ $ $ $ $ $ $ $ $ $ HXFXLXLX$ LX$ HXLX$ FXLXLXLXLX$ LX$ GXLXFX$ $ $ $ $ $ LX$ $ $ FX$ LXHXLX$ HXGX",
"GX$ LXLXLXLX$ $ LXLXFXLXFX$ $ $ $ LX$ $ $ $ $ $ $ HXFXLXLX$ $ $ HXLX$ FXLXLXLXLX$ FXFXFXLX$ $ $ LX$ $ $ LX$ $ $ FXLX$ LX$ $ $ FX",
"GX$ $ LX$ LX$ $ $ LXFXLXLX$ $ $ LXLXLX$ $ $ $ $ $ HXFXFXLX$ $ $ $ LX$ LXLXLXLX$ $ FXFXLXLX$ $ $ LX$ $ $ LX$ $ $ FXLXFXLX$ HXHXGX",
"GX$ $ LX$ LX$ $ $ LXFXLXLX$ LX$ LXLXLX$ $ $ $ $ $ HXLXFXLX$ $ $ $ $ $ LXLX$ LX$ $ FXFXLX$ LX$ $ LX$ $ $ LXLX$ $ FXLXFXLX$ $ $ FX",
"GX$ $ $ $ LX$ $ $ FXLXLXLXLXLXLXLXLXLX$ LXLX$ $ $ HXLXFX$ $ $ $ $ $ $ LXLXLXLX$ LXLXFXLXLXLXLX$ LX$ $ $ LX$ $ $ FX$ LX$ $ HX$ GX",
"GX$ $ $ HX$ $ $ LXLXLX$ LXLXLX$ $ LXLXLXLXLXLX$ $ HXLXLX$ $ LX$ $ $ $ LX$ LX$ LX$ LXLXLXLXLX$ $ LXLXLX$ $ $ $ $ FX$ LX$ LXHX$ GX",
"GX$ $ $ $ $ $ $ $ FXLX$ LXLXLX$ LX$ $ LX$ $ $ $ $ HXLXLX$ $ $ $ $ $ $ LX$ $ $ $ $ LXLXLXLXLX$ $ $ LXLX$ $ HX$ $ FX$ $ LXLXHX$ GX",
"GX$ $ $ $ $ $ $ $ FXLX$ LXFX$ LXLX$ $ FX$ $ $ $ $ HXLXLX$ $ $ $ $ $ $ $ $ $ $ $ HXLXLXLX$ LXLX$ $ $ LX$ $ $ $ $ FX$ $ LXLXHX$ FX",
"GX$ $ $ HX$ $ $ HXFXLX$ $ FX$ LXLX$ LXFX$ $ $ $ $ HXLXLX$ $ $ $ $ FX$ LX$ $ $ HXHXLXLX$ $ LXLX$ $ LXLX$ $ HXLXLXFX$ FXLXLXHX$ GX",
"GX$ $ $ $ $ $ $ HXFXFX$ $ FX$ LXLX$ LXFX$ $ $ $ LX$ LX$ $ $ LX$ $ LX$ LX$ $ $ HX$ LXLX$ $ LXLXLX$ LXLX$ $ $ LXLXFX$ LX$ LX$ LXGX",
"GX$ $ $ $ $ $ $ $ GXGXLX$ LX$ $ $ LXLXFX$ $ LX$ $ HX$ $ $ $ LX$ $ LX$ $ $ $ $ $ LXFXFX$ $ $ $ $ LXFXLX$ $ $ LX$ GX$ LXLX$ $ LXGX",
"GX$ $ $ HX$ $ $ $ GXFXLX$ FX$ $ $ LX$ FX$ $ LXLX$ $ $ $ LX$ $ $ $ LX$ LX$ LX$ $ LXLXFX$ $ $ $ $ LXFXLXLX$ $ LX$ GX$ FXLX$ HXLXGX",
"GX$ LXLX$ $ $ $ $ FXFXLX$ FX$ $ $ LX$ FX$ HX$ $ LXLX$ $ LX$ $ $ $ LXLXLX$ $ $ $ LXLXFXLX$ $ $ $ LXHXLXLXHX$ $ $ FX$ FXLX$ $ LXGX",
"GX$ LXLX$ $ $ $ $ GXLXLX$ FXHXLXLX$ $ FX$ $ $ $ $ $ $ LX$ $ $ $ $ LXLXLX$ $ $ $ FX$ FXLX$ $ LXLX$ LX$ LX$ $ $ $ FX$ FXLX$ $ LXGX",
"GX$ LX$ $ $ $ $ $ GX$ LX$ FXHX$ LXLXLXFX$ HX$ $ $ $ $ LX$ $ $ $ $ $ $ LX$ LX$ $ FX$ FXLX$ $ $ LXLXLX$ $ HX$ $ $ FX$ LX$ LX$ LXGX",
"GX$ LX$ HX$ $ $ $ FXLXLX$ FXHX$ LXLX$ FX$ $ $ $ LXLX$ LX$ $ $ $ $ $ $ LX$ LX$ $ LX$ FXLXLX$ $ LXLXLX$ LX$ $ $ $ FX$ LX$ LX$ LXGX",
"GX$ $ $ $ $ $ $ LXFXLX$ $ FX$ LXLXLX$ FXLX$ LX$ LXLX$ LX$ $ $ $ $ $ $ LX$ LX$ $ $ $ FXLXLX$ $ LXLXLX$ LX$ $ LXLXFX$ LX$ LXHX$ GX",
"GX$ $ $ LXLX$ $ $ FXLX$ $ FX$ LXLXLXLXFXLX$ FXLXLXLX$ LX$ $ $ $ HX$ $ LX$ $ $ LXLXLXLX$ $ HXLXHXLXLXHX$ $ $ LXLXGXLXFXLXLXHX$ GX",
"GX$ $ $ $ LX$ $ $ FXLX$ $ FX$ LX$ LXLXFX$ $ FXLX$ $ $ LXLX$ $ $ $ $ $ LXHX$ $ LXLXLXLX$ LX$ $ LX$ LX$ LX$ $ LXLXGXLXLX$ LXHX$ GX",
"GX$ $ $ $ LX$ LX$ FXLX$ $ FX$ LX$ LXLXFX$ $ FXLXLXLX$ LXLX$ $ $ HXLXHXFXHX$ $ $ LXLXLX$ $ $ LXLX$ $ HXLX$ $ $ LXFXLX$ $ LXHX$ FX",
"GX$ $ $ $ $ $ $ $ LXLXLX$ FX$ $ $ LXLXFX$ LXLXLXLXLX$ FXLX$ $ $ HXLX$ LXHX$ $ $ LX$ LX$ $ $ LXLX$ LX$ LX$ $ $ LXFXLX$ $ $ HX$ GX",
"GX$ $ $ LX$ $ $ LXLXLXLX$ FX$ $ HX$ $ LXLX$ LXHXLXLX$ LX$ $ LXLX$ $ $ LX$ $ $ $ LX$ LX$ $ HXLX$ $ $ $ FXLX$ $ $ FXLX$ $ $ $ LXGX",
"GX$ $ $ LX$ $ LXLXFXLX$ $ FX$ $ $ $ $ LX$ $ LXHXLXLX$ LXLX$ LXLX$ $ $ LX$ LXLX$ $ $ LX$ LXHXLX$ LX$ $ FXLX$ $ $ FX$ $ $ $ HXLXGX",
"GX$ $ $ $ $ $ LXLXFXLX$ $ LX$ $ HX$ $ LX$ HXLXHX$ $ $ FXLX$ $ LX$ $ $ LX$ LXLX$ $ $ LX$ LX$ LXLXLX$ $ LXLX$ $ $ FX$ LXLX$ $ LXGX",
"GX$ LXLX$ $ $ LXLXFXLX$ $ LX$ $ HX$ $ LXHXHXLXHX$ $ $ FXLX$ LXLX$ $ $ LX$ $ LX$ $ $ LX$ $ $ LXLXLX$ $ LXLX$ $ $ LX$ LXLX$ $ LXGX",
"GX$ LXLX$ $ $ $ LXFXFX$ $ LX$ $ $ $ $ FXHX$ LXHX$ $ $ FXLX$ LXLX$ HX$ LXHXLXLXLX$ $ FXLX$ $ FXLXLX$ $ LXLX$ $ $ FX$ $ LX$ $ LXGX",
"GX$ LX$ LX$ $ LX$ FXLX$ $ LX$ $ HX$ LXFX$ LXLX$ $ $ $ LX$ HXFXLX$ $ $ LXHXLXLX$ $ $ FXLXHXHXLX$ LX$ LXLX$ $ $ $ FX$ LXLXLX$ LXGX",
"GX$ $ $ $ LXLXLX$ FX$ FX$ LX$ $ $ HX$ FX$ $ LX$ $ $ $ FXLX$ LX$ $ $ $ LX$ FXLX$ $ LXFX$ $ HXLXLX$ $ LXLX$ $ $ $ $ $ LXLX$ $ $ GX",
"GX$ $ $ LX$ LXLX$ $ $ FXHX$ $ HX$ $ LXFXLX$ LX$ LXLX$ FXLX$ LXLXLX$ $ LX$ LXLX$ $ LXFX$ HXHXLXLX$ $ FXGX$ HX$ $ FX$ FXLX$ $ LXGX",
"GX$ $ $ $ HXLXLX$ $ LXFXHXLX$ $ $ $ $ FXLXHXLXHXLXLXLXFXLX$ $ $ LX$ $ LXHXLXLX$ $ LXFX$ HXHXFX$ $ $ $ GXHXHX$ $ FX$ LXLX$ $ $ GX",
"GX$ LXLX$ $ $ $ $ $ FXFX$ FXLX$ $ $ LXFXFX$ LX$ $ FX$ FXLX$ $ $ $ LXLXLX$ $ $ $ $ FXGXLX$ $ FXLX$ $ $ GXLXHXLX$ GX$ LXLX$ $ $ GX",
"GX$ LXLX$ $ $ $ $ $ FXFX$ LX$ $ $ $ LXFXLXLXLX$ LXFX$ FXLX$ $ $ $ LXLXLX$ $ $ $ $ FXFXLXHXHXFXLX$ $ $ FXLXHXLXLXGX$ LXLX$ $ $ GX",
"GX$ LXLX$ LX$ $ $ LXFXFX$ $ LX$ $ $ LXFXLX$ LX$ LXFX$ FXLX$ LX$ $ LXLXLXLX$ $ $ LXFXFXLXHX$ FX$ $ $ $ LX$ HXLXLXFX$ LXLX$ $ $ GX",
"GX$ $ LX$ LX$ $ $ LXLXFX$ LXLX$ $ $ LXFXLX$ LX$ LXLX$ FXLX$ LX$ $ $ LXLXLX$ $ $ LXLXFXFX$ $ FX$ $ $ LXLX$ HXLXLXLX$ LXLX$ $ $ GX",
"GX$ LXLX$ LXHX$ HXLXLXLX$ LXFX$ $ LXLXFXFX$ $ $ FXLX$ FXLX$ LX$ $ LXLXLXLXHX$ HXLXLXFXFX$ $ FXLXLX$ LXFX$ HXLXFX$ $ LXLXLX$ $ GX",
"GX$ $ LX$ LX$ $ $ LXLXLX$ FXFX$ $ LXLXFXFX$ LXHXFXLX$ FX$ $ LXLX$ $ LXLXLX$ $ $ LXLXFXFX$ $ FXLXLX$ LXFX$ $ $ FX$ $ FX$ LXHXLXGX",
"GX$ $ $ $ LX$ $ $ $ LXFX$ LXFX$ $ $ $ FXFXLXLXHXFXLX$ FX$ $ FXLX$ $ $ LXLX$ $ $ $ LXFXFX$ $ FXLX$ HXLXFXLX$ $ FX$ $ FX$ LXHX$ GX",
"GX$ $ LX$ LX$ $ $ LXLXGX$ LXFX$ LXLX$ FXFXLXLX$ FXLX$ FX$ $ FXLX$ $ LXLXLX$ $ $ LXLXGXFX$ $ FXFXLXHXLXFXLX$ LXFXLX$ LX$ LXHX$ GX",
"GX$ $ LX$ $ $ $ $ LXLXFX$ LXLX$ $ FXLXGXFXLXLX$ FXFXLXFX$ $ LXLX$ $ LXLX$ $ $ $ LXLXFXFX$ $ FXLXFX$ FXFXLX$ LXFXLXLX$ $ $ HX$ GX",
"GX$ LX$ $ LX$ $ $ LXLXLXHXLXLX$ $ FXFXGXLXLXLX$ LXFXLX$ $ $ LXLX$ LX$ LXLXLX$ $ LXLXLXLX$ $ FXLXFX$ FXLXLX$ LXLXLXLX$ $ LXHX$ GX",
"GX$ $ $ $ LX$ HXLXFXFXFXLX$ $ $ HXLXLXFX$ LX$ $ LXFX$ LX$ $ LXHX$ $ $ LXLXLXLX$ $ $ $ LX$ $ FXHX$ HXFXLXLX$ LXLXLXLX$ LX$ HX$ GX",
"GX$ LX$ $ $ $ LX$ FXFXFX$ $ $ $ $ LXLXFX$ LX$ $ LXFXHXLX$ $ LXFX$ $ $ LXLXLXLX$ $ LXLX$ $ HXFX$ $ HXFXLXLX$ LXLXLXLX$ FXLX$ $ GX",
"GX$ LX$ $ $ $ LX$ FX$ LX$ LX$ HX$ $ LXFX$ LXLXLX$ FXFXLX$ $ LXFX$ $ $ $ $ LXLX$ $ $ LXLX$ HXFXHX$ HXFX$ $ $ LXLXFX$ $ FXLX$ $ GX",
"GX$ LX$ $ $ $ LX$ FXLXLX$ FXLXHXHX$ LXFX$ LXLXLX$ FXFXLXLX$ $ LX$ $ $ $ $ LX$ $ $ $ LXLX$ HXFX$ $ HXFX$ $ $ LX$ FX$ $ FXLXHX$ GX",
"GX$ LXHXLX$ $ LX$ $ LXLX$ LXLX$ $ $ LXFXGXLXLX$ $ FX$ $ LX$ $ LX$ $ $ $ $ LX$ $ $ $ $ $ $ $ FX$ LX$ FX$ $ $ LXLXFX$ $ LXLXHX$ GX",
"GX$ $ LX$ $ $ LX$ $ LXLX$ LXLX$ $ $ FXFX$ $ LX$ $ FX$ $ LX$ $ $ $ LXLXLX$ $ $ $ $ LX$ $ $ $ FX$ LXLXFX$ $ HX$ LXLX$ $ LXLXHX$ GX",
"GX$ LXLX$ $ $ LX$ $ $ $ $ LXLX$ $ $ FXFX$ $ LX$ LXLX$ $ $ $ $ LX$ LXLXLX$ $ $ $ $ LX$ $ LX$ FX$ $ LXFX$ $ $ $ $ LX$ $ $ LXHX$ GX",
"GX$ LXLX$ $ $ LX$ $ $ $ $ LX$ LX$ $ FXFX$ $ LX$ LXLX$ $ $ $ LXLX$ $ $ $ $ LXLXLX$ $ $ $ LXHXFXLXHX$ FX$ $ LXLXLXFX$ $ $ LXHX$ GX",
"GX$ $ $ $ $ $ FXLXLX$ $ $ LXLXLX$ $ LXFX$ $ FXLXFXLX$ $ LX$ LXLX$ LX$ $ $ LXLXLX$ $ LXLXLX$ FXLX$ HXFX$ $ LXLXLXFX$ $ $ LXHX$ GX",
"GX$ $ $ LX$ $ FXLXLX$ $ HX$ LX$ $ $ LXFX$ $ FX$ LXLXLXLX$ $ LX$ LXLX$ $ $ $ LXLX$ $ $ LXLX$ FX$ HX$ FXLXLXLX$ LXFXLX$ $ $ HX$ GX",
"GX$ $ LXLX$ $ LXLXLX$ $ $ HX$ $ $ $ LXFX$ $ FX$ FX$ LXLXLX$ LX$ $ FX$ $ $ $ LX$ $ $ $ LXLX$ FXLX$ $ FX$ $ LX$ LXLXLX$ $ $ HX$ GX",
"GX$ $ LXLX$ $ $ FX$ $ $ $ HX$ $ $ $ LXFX$ $ LXLXFX$ $ LX$ $ LXLX$ $ $ $ $ $ LX$ $ $ $ LXLX$ FX$ $ LXFXLX$ $ $ LXFX$ $ $ $ HX$ GX",
"GX$ LXLXLX$ $ $ FX$ $ $ HX$ $ $ HX$ LX$ $ $ LXLXFX$ LXLX$ $ LX$ $ $ LXLXLX$ $ $ $ $ LXLX$ $ FX$ $ LXLXLX$ $ HX$ FXLX$ LX$ HX$ GX",
"GX$ $ $ LX$ $ $ LX$ $ $ $ $ $ $ HX$ LX$ $ $ LXLXFX$ LXLX$ $ LX$ $ $ LXLXLX$ $ $ $ $ LX$ LX$ LX$ $ $ LXLX$ $ $ $ LXLX$ $ $ HX$ GX",
"GX$ $ LX$ LX$ $ LX$ $ $ $ $ $ $ $ LXLXLX$ $ LX$ LXLXFXLXLX$ LX$ HXLX$ $ LX$ $ $ $ $ $ $ $ LXLX$ $ $ LX$ $ $ $ LX$ FX$ $ $ HX$ GX",
"GX$ LX$ $ LX$ $ LXGXLXLXLX$ $ $ $ $ $ $ $ $ LXFXFXLX$ LXLX$ LXLX$ LXLXLXLXLX$ $ LXLX$ $ LXLXLX$ $ $ LX$ $ $ HXLX$ $ $ HXLXHX$ GX",
"GX$ LX$ $ LX$ $ LX$ FXLXLX$ $ $ $ $ $ $ $ $ LXFXLXLXLXLXLX$ LXLXHX$ LXLXLX$ $ $ LXLX$ LXLX$ LX$ LX$ LX$ $ $ $ LX$ $ $ $ LXHX$ GX",
"GX$ LXLXLXLX$ $ LXLXLXLX$ $ LX$ $ LX$ $ LXLXLXLXLXLXLXLXLX$ $ LXHXLXFXFXLX$ $ LXLX$ LXLXLXLXLX$ LX$ LX$ $ $ $ LX$ $ $ LXFX$ $ FX",
"GX$ LXLX$ $ $ $ FXLX$ LX$ LXLXLX$ $ $ $ $ $ $ LXLX$ LXLXLX$ $ LX$ LXLXLX$ LX$ LXLXLXLXGXLX$ LX$ $ $ $ LX$ LX$ LXLX$ $ $ LXLX$ KX",
"GX$ LXFX$ $ $ $ FXLX$ FXLX$ LX$ $ $ $ $ $ $ $ LXLX$ LXLXLX$ $ $ $ LXLXLX$ LX$ LXLXLX$ FXFX$ LX$ $ $ $ $ $ LX$ FX$ LX$ $ $ LX$ GX",
"GX$ LX$ $ LX$ $ FXLX$ LX$ HXLX$ $ LX$ $ LXLX$ $ LX$ $ $ LX$ $ $ $ LX$ LXLXLX$ LXLXFXLXFXFX$ LX$ $ $ $ $ $ $ LXFX$ $ $ $ $ LX$ GX",
"GXFXGXGXGXGXGXGXGXGXGXKXGXFXGXGXFXGXGXGXGXGXGXGXGXGXGXGXGXFXGXGXGXGXGXKXGXGXGXGXGXKXGXKXGXGXGXFXGXGXGXGXFXGXGXKXFXGXGXFXGXGXFXGX"
};
