/* XPM */
static char *wall_lab2[] = {
/* columns rows colors chars-per-pixel */
"64 64 256 2 ",
"   c black",
".  c blue",
"X  c green",
"o  c red",
"O  c cyan",
"+  c yellow",
"@  c magenta",
"#  c white",
"$  c #7B7B7B",
"%  c #7B7B7B",
"&  c #7B7B7B",
"*  c #7B7B7B",
"=  c #7B7B7B",
"-  c #7B7B7B",
";  c #7B7B7B",
":  c #7B7B7B",
">  c #7B7B7B",
",  c #7B7B7B",
"<  c #7B7B7B",
"1  c #7B7B7B",
"2  c #7B7B7B",
"3  c #7B7B7B",
"4  c #7B7B7B",
"5  c #7B7B7B",
"6  c #7B7B7B",
"7  c #7B7B7B",
"8  c #7B7B7B",
"9  c #7B7B7B",
"0  c #7B7B7B",
"q  c #7B7B7B",
"w  c #7B7B7B",
"e  c #7B7B7B",
"r  c #7B7B7B",
"t  c #7B7B7B",
"y  c #7B7B7B",
"u  c #7B7B7B",
"i  c #7B7B7B",
"p  c #7B7B7B",
"a  c #7B7B7B",
"s  c #7B7B7B",
"d  c #7B7B7B",
"f  c #7B7B7B",
"g  c #7B7B7B",
"h  c #7B7B7B",
"j  c #7B7B7B",
"k  c #7B7B7B",
"l  c #7B7B7B",
"z  c #7B7B7B",
"x  c #7B7B7B",
"c  c #7B7B7B",
"v  c #7B7B7B",
"b  c #7B7B7B",
"n  c #7B7B7B",
"m  c #7B7B7B",
"M  c #7B7B7B",
"N  c #7B7B7B",
"B  c #7B7B7B",
"V  c #7B7B7B",
"C  c #7B7B7B",
"Z  c #7B7B7B",
"A  c #7B7B7B",
"S  c #7B7B7B",
"D  c #7B7B7B",
"F  c #7B7B7B",
"G  c #7B7B7B",
"H  c #7B7B7B",
"J  c #7B7B7B",
"K  c #7B7B7B",
"L  c #7B7B7B",
"P  c #7B7B7B",
"I  c #7B7B7B",
"U  c #7B7B7B",
"Y  c #7B7B7B",
"T  c #7B7B7B",
"R  c #7B7B7B",
"E  c #7B7B7B",
"W  c #7B7B7B",
"Q  c #7B7B7B",
"!  c #7B7B7B",
"~  c #7B7B7B",
"^  c #7B7B7B",
"/  c #7B7B7B",
"(  c #7B7B7B",
")  c #7B7B7B",
"_  c #7B7B7B",
"`  c #7B7B7B",
"'  c #7B7B7B",
"]  c #7B7B7B",
"[  c #7B7B7B",
"{  c #7B7B7B",
"}  c #7B7B7B",
"|  c #7B7B7B",
" . c #7B7B7B",
".. c #7B7B7B",
"X. c #7B7B7B",
"o. c #7B7B7B",
"O. c #7B7B7B",
"+. c #7B7B7B",
"@. c #7B7B7B",
"#. c #7B7B7B",
"$. c #7B7B7B",
"%. c #7B7B7B",
"&. c #7B7B7B",
"*. c #7B7B7B",
"=. c #7B7B7B",
"-. c #7B7B7B",
";. c #7B7B7B",
":. c #7B7B7B",
">. c #7B7B7B",
",. c #7B7B7B",
"<. c #7B7B7B",
"1. c #7B7B7B",
"2. c #7B7B7B",
"3. c #7B7B7B",
"4. c #7B7B7B",
"5. c #7B7B7B",
"6. c #7B7B7B",
"7. c #7B7B7B",
"8. c #7B7B7B",
"9. c #7B7B7B",
"0. c #7B7B7B",
"q. c #7B7B7B",
"w. c #7B7B7B",
"e. c #7B7B7B",
"r. c #7B7B7B",
"t. c #7B7B7B",
"y. c #7B7B7B",
"u. c #7B7B7B",
"i. c #7B7B7B",
"p. c #7B7B7B",
"a. c #7B7B7B",
"s. c #7B7B7B",
"d. c #7B7B7B",
"f. c #7B7B7B",
"g. c #7B7B7B",
"h. c #7B7B7B",
"j. c #7B7B7B",
"k. c #7B7B7B",
"l. c #7B7B7B",
"z. c #7B7B7B",
"x. c #7B7B7B",
"c. c #7B7B7B",
"v. c #7B7B7B",
"b. c #7B7B7B",
"n. c #7B7B7B",
"m. c #7B7B7B",
"M. c #7B7B7B",
"N. c #7B7B7B",
"B. c #7B7B7B",
"V. c #7B7B7B",
"C. c #7B7B7B",
"Z. c #7B7B7B",
"A. c #7B7B7B",
"S. c #7B7B7B",
"D. c #7B7B7B",
"F. c #7B7B7B",
"G. c #7B7B7B",
"H. c #7B7B7B",
"J. c #7B7B7B",
"K. c #7B7B7B",
"L. c #7B7B7B",
"P. c #7B7B7B",
"I. c #7B7B7B",
"U. c #7B7B7B",
"Y. c #7B7B7B",
"T. c #7B7B7B",
"R. c #7B7B7B",
"E. c #7B7B7B",
"W. c #7B7B7B",
"Q. c #7B7B7B",
"!. c #7B7B7B",
"~. c #7B7B7B",
"^. c #7B7B7B",
"/. c #7B7B7B",
"(. c #7B7B7B",
"). c #7B7B7B",
"_. c #7B7B7B",
"`. c #7B7B7B",
"'. c #7B7B7B",
"]. c #7B7B7B",
"[. c #7B7B7B",
"{. c #7B7B7B",
"}. c #7B7B7B",
"|. c #7B7B7B",
" X c #7B7B7B",
".X c #7B7B7B",
"XX c #7B7B7B",
"oX c #7B7B7B",
"OX c #7B7B7B",
"+X c #7B7B7B",
"@X c #7B7B7B",
"#X c #7B7B7B",
"$X c #7B7B7B",
"%X c #7B7B7B",
"&X c #7B7B7B",
"*X c #7B7B7B",
"=X c #7B7B7B",
"-X c #7B7B7B",
";X c #7B7B7B",
":X c #7B7B7B",
">X c #7B7B7B",
",X c #7B7B7B",
"<X c #7B7B7B",
"1X c #7B7B7B",
"2X c #7B7B7B",
"3X c #7B7B7B",
"4X c #7B7B7B",
"5X c #7B7B7B",
"6X c #7B7B7B",
"7X c #7B7B7B",
"8X c #7B7B7B",
"9X c #7B7B7B",
"0X c #7B7B7B",
"qX c #7B7B7B",
"wX c #7B7B7B",
"eX c #7B7B7B",
"rX c #7B7B7B",
"tX c #7B7B7B",
"yX c #7B7B7B",
"uX c #7B7B7B",
"iX c #7B7B7B",
"pX c #7B7B7B",
"aX c #7B7B7B",
"sX c #7B7B7B",
"dX c #7B7B7B",
"fX c #7B7B7B",
"gX c #7B7B7B",
"hX c #7B7B7B",
"jX c #7B7B7B",
"kX c #7B7B7B",
"lX c #7B7B7B",
"zX c #7B7B7B",
"xX c #7B7B7B",
"cX c #7B7B7B",
"vX c #7B7B7B",
"bX c #7B7B7B",
"nX c #7B7B7B",
"mX c #7B7B7B",
"MX c #7B7B7B",
"NX c #7B7B7B",
"BX c #7B7B7B",
"VX c #7B7B7B",
"CX c #7B7B7B",
"ZX c #7B7B7B",
"AX c #7B7B7B",
"SX c #7B7B7B",
"DX c #393939",
"FX c #838383",
"GX c gray29",
"HX c #6A6A6A",
"JX c gray45",
"KX c #626262",
"LX c #7B7B7B",
"PX c #5A5A5A",
"IX c gray58",
"UX c gray32",
/* pixels */
"PXPXPXPXPXPXPXPXPXPXPXPXPXPXPXPXPXPXPXPXPXPXPXPXPXPXGXPXPXPXPXPXKXPXPXPXPXPXPXPXPXPXPXPXPXGXPXPXPXPXPXPXPXPXPXPXPXGXPXPXPXPXPXPX",
"FXFXFXFXFXFXIXFXFX$ FXFXFXIXFXFXFXFXFXFXIXIXFXFXFXIXFXFXFXIXFXFXFXFXFXFXFXFXFXFXFXFXFXFXFXFXFXIXFXFXFXFXIXFXIXFXFXIXFXIXFXFXIXFX",
"JXJXJX$ $ JX$ $ JX$ KXJXJX$ $ $ JX$ $ $ $ $ JXKXJX$ JXJXJX$ JXJXFX$ JXKXJX$ $ $ JXJX$ JXKXJXJX$ JX$ $ $ $ $ $ JX$ $ $ $ JX$ $ $ ",
"JX$ JXJXJXJX$ $ JXJXJXJX$ $ JX$ $ JX$ $ JXJXJXJXJX$ JXJXJX$ $ JXFXJXKXPXJX$ $ JXJX$ JXJXKXKX$ $ JX$ $ $ $ $ $ JX$ $ $ JXKXJX$ $ ",
"$ JXJXJX$ $ $ $ KXJX$ JX$ JXJXJX$ $ $ $ $ $ $ JXJXFXJXJXJX$ $ JX$ JXJXKX$ JX$ JXJXJXJXPXKXJX$ $ $ $ $ JX$ JX$ JXJX$ $ $ JXJX$ KX",
"$ JXJXKX$ $ $ $ KXJX$ KXJX$ JX$ $ $ $ $ $ $ $ JXJXFXJXJXJX$ $ $ $ JXJXKX$ JX$ JXJXJX$ KXKXJX$ $ $ $ $ $ $ JX$ KX$ JX$ $ $ JX$ JX",
"$ $ JX$ $ JX$ $ KXJX$ JX$ FXJX$ $ JX$ $ JXJX$ $ JXFX$ $ JX$ $ $ $ JX$ KXJXJX$ JXJXKXJXKXKXJX$ $ $ $ $ $ $ $ JXKXKX$ $ $ $ JX$ JX",
"$ $ JXJXJXJX$ $ JXJX$ KXJX$ $ JX$ JX$ $ $ $ $ $ JXFX$ $ JX$ $ $ $ JXJXPXJXJX$ JXJXKXJXKXJXJX$ $ JXJXJX$ $ JXJXKXJX$ $ $ $ JX$ JX",
"$ $ JX$ JXJX$ $ JXPXJXJXJX$ JXJXJXJX$ $ $ $ $ $ JXFX$ $ JX$ $ $ $ JXJXPXJX$ $ JXKXKXJXKXJXJX$ $ JXJXJX$ $ $ JXJXKXJX$ $ $ $ $ JX",
"$ $ JXJX$ JX$ JXJXKX$ JX$ $ JXJX$ $ $ JXJXJX$ $ JXFXJX$ $ $ JXJXJX$ JXJXJXJXJXJXJXJXJXJX$ JX$ $ JXJXJX$ $ $ JXJXJXJX$ $ $ $ $ $ ",
"JX$ JXJX$ $ $ JX$ KX$ JX$ $ JXJX$ JX$ JXJXJX$ $ JXFXJX$ $ $ $ $ JXJXJXKX$ JXJX$ JXJXJXJX$ JXJXFX$ JXJX$ $ $ JXKXKXJX$ $ $ $ $ $ ",
"JX$ JXJXJX$ $ $ JXKXFXJX$ $ $ JXJXJX$ $ JXJX$ $ JXFX$ $ $ $ $ $ JXJXJXKX$ JX$ JXJXJXJXKX$ JXJX$ $ JX$ $ $ $ JXJXKX$ $ JXJX$ $ $ ",
"$ $ JXJXJX$ $ JXJXJXFXJX$ $ $ JXJXJX$ JX$ $ $ $ KX$ $ $ $ $ $ $ $ JX$ KX$ JXJXJX$ JXJXKX$ JXJX$ $ JX$ $ $ JXJXJXKXJX$ JXJX$ $ $ ",
"$ $ JXJX$ $ $ JXJXJX$ JX$ $ $ JXJXJX$ JXJXJX$ $ KX$ $ $ $ $ JXJXJXJXJXJX$ JXJXJX$ JXJXKX$ JX$ $ $ $ $ $ JXJXJX$ KXJX$ $ JX$ FX$ ",
"$ JXJXJXJX$ $ JX$ JX$ JXJX$ $ $ $ $ $ JXJXJX$ JXKXFXJXJXJX$ $ $ JXJXJXKX$ $ JX$ $ $ JXKX$ JX$ FX$ $ JX$ JXJXJXJXKXJX$ JXJXJX$ $ ",
"$ JXJXJXJXJX$ JXKXKXJXJXJX$ $ JX$ $ $ JXJXJX$ JX$ FXJXJXJX$ JX$ JX$ $ KXJXJXJXKXJXJXJXKX$ JXJX$ $ $ JX$ JXKXJXJXKXJX$ JXJX$ $ $ ",
"$ $ JXJXJXJX$ JXKXPXJXJXJX$ $ JX$ $ $ JXJXJX$ $ $ FXJXJXKX$ JX$ $ JX$ KXJXJXJXKXKXJXJXKX$ JXJX$ $ $ JX$ JXKX$ JXKX$ $ KXJX$ $ JX",
"$ $ JXJXJXJX$ $ JXKXJX$ $ $ $ $ JX$ $ $ $ $ $ $ $ FXJXJXKX$ JX$ $ JX$ KXJXJX$ JXJXJX$ $ JXJX$ $ $ $ $ $ JX$ $ JXKX$ JXKXJX$ $ JX",
"$ $ JXJXJXJX$ $ JXJXJX$ PX$ JX$ $ $ $ $ $ $ $ $ $ FXKXJXJX$ JX$ FXJX$ KXJXJXJXJX$ JX$ PXJXKX$ $ $ $ $ $ JX$ $ $ KX$ JXFXJX$ FX$ ",
"JX$ JXJXJXJX$ $ JXJXKXJXKX$ $ $ $ JX$ $ $ $ $ $ $ FXKXJXJX$ $ $ FXJX$ KXJXJXJXJX$ KXKXKXJX$ $ $ JX$ $ $ JX$ $ $ KXJX$ JX$ $ $ $ ",
"JX$ $ JX$ JX$ $ $ JXKXJXJX$ $ $ JXJXJX$ $ $ $ $ $ FXKXKXJX$ $ $ $ JX$ JXJXJXJX$ $ KXKXJXJX$ $ $ JX$ $ $ JX$ $ $ KXJXKXJX$ FXFX$ ",
"$ $ $ JX$ JX$ $ $ JXKXJXJX$ JX$ JXJXJX$ $ $ $ $ $ FXJXKXJX$ $ $ $ $ $ JXJX$ JX$ $ KXKXJX$ JX$ $ JX$ $ $ JXJX$ $ KXJXKXJX$ $ $ $ ",
"JXJX$ $ $ JX$ $ $ KXJXJXJXJXJXJXJXJXJX$ JXJX$ $ $ FXJXKX$ $ $ $ $ $ $ JXJXJXJX$ JXJXKXJXJXJXJX$ JX$ $ $ JX$ $ $ KX$ JX$ $ FX$ JX",
"JXJX$ $ FX$ $ $ JXJXJX$ JXJXJX$ $ JXJXJXJXJXJX$ $ FXJXJX$ $ JX$ $ $ $ JX$ JX$ JX$ JXJXJXJXJX$ $ JXJXJX$ $ $ $ $ KX$ JX$ JXFX$ JX",
"GXDXGXGXGXPXPXGXPXPXPXGXGXGXPXPXPXPXGXGXGXPXGXPXPXGXPXGXGXGXGXGXGXGXGXGXPXGXGXPXPXPXGXPXGXGXPXGXPXPXPXGXGXGXPXPXPXPXGXGXGXPXGXPX",
"PXGXPXKXKXJXKXKXPXKXJXKXKXKXJXKXKXJXPXPXGXJXPXKXJXPXKXGXPXPXKXPXPXPXKXJXPXPXKXJXKXJXKXKXPXKXKXPXPXKXJXKXKXKXJXKXKXJXPXPXGXJXPXKX",
"PXPXPXKXGXJXPXKXKXKXJXKXKXKXKXKXKXJXGXPXPXJXPXKXJXPXJXGXPXPXPXPXKXPXKXGXPXGXKXJXKXJXKXKXPXJXKXKXKXKXJXKXKXKXKXKXKXJXGXPXPXJXPXKX",
"PXPXGXPXGXJXKXJXKXPXKXKXKXKXJXKXKXJXGXPXPXJXKXKXJXPXKXGXPXPXPXPXKXGXGXGXPXKXJXJXPXJXKXKXPXKXKXKXKXPXKXKXKXKXJXKXKXJXGXPXPXJXKXKX",
"KXPXGXPXPXJXKXKXPXPXPXKXKXKXJXKXKXJXGXGXPXJXKXKXKXPXKXPXPXPXPXKXKXGXGXPXPXKXKXJXPXKXKXJXPXJXKXKXPXPXPXKXKXKXJXKXKXJXGXGXPXJXKXKX",
"KXPXGXPXPXKXPXJXPXPXPXKXKXKXJXKXKXJXPXGXPXJXKXKXKXKXKXPXPXKXPXKXKXGXGXPXKXPXJXJXPXKXKXJXPXPXKXKXPXPXPXKXKXKXJXKXKXJXPXGXPXJXKXKX",
"KXGXPXPXPXPXPXPXPXPXPXKXPXPXKXKXKXJXPXGXKXJXKXKXKXKXKXPXPXPXPXKXPXPXGXPXPXPXPXJXPXKXKXJXPXKXKXKXPXPXPXKXPXPXKXKXKXJXPXGXKXJXKXKX",
"PXPXPXKXPXPXPXKXKXPXPXPXPXPXPXKXKXJXPXPXKXJXPXKXKXKXKXPXKXPXKXPXKXPXPXPXPXPXKXJXPXPXPXJXKXJXKXKXKXPXPXPXPXPXPXKXKXJXPXPXKXJXPXKX",
"KXGXPXKXPXPXPXKXPXKXKXPXKXKXKXKXJXJXPXPXKXJXKXKXKXKXKXPXJXKXKXKXKXPXPXPXPXPXKXJXKXPXPXJXKXJXKXKXPXKXKXPXKXKXKXKXJXJXPXPXKXJXKXKX",
"KXGXPXKXPXGXKXPXPXKXKXGXJXJXKXKXJXJXPXPXKXJXKXKXKXKXKXKXJXKXJXKXJXPXPXPXKXPXPXJXKXKXPXJXJXJXKXKXPXKXKXGXJXJXKXKXJXJXPXPXKXJXKXKX",
"JXGXPXKXKXGXKXPXPXKXPXGXKXKXKXKXKXJXPXPXKXJXKXKXKXGXKXPXKXKXJXJXJXPXPXKXKXPXPXJXKXPXPXKXKXJXPXPXPXKXPXGXKXKXKXKXKXJXPXPXKXJXKXKX",
"JXGXGXKXJXGXKXPXPXKXPXGXJXKXKXKXPXJXPXKXKXJXPXKXKXPXKXPXKXKXKXJXKXPXPXKXKXPXPXPXKXPXPXKXKXJXPXPXPXKXPXGXJXKXKXKXPXJXPXKXKXJXPXKX",
"KXGXGXPXJXPXKXKXKXPXPXGXJXKXPXKXKXJXKXJXKXJXPXKXKXPXKXKXKXKXKXKXPXGXGXKXJXJXKXKXPXGXPXKXKXJXPXKXKXPXPXGXJXKXPXKXKXJXKXJXKXJXPXKX",
"KXGXGXPXJXGXKXKXKXPXKXGXKXKXPXPXKXKXKXJXPXJXKXKXKXPXKXPXKXPXKXKXPXPXGXKXKXJXKXKXPXGXPXPXKXJXPXKXKXPXKXGXKXKXPXPXKXKXKXJXPXJXKXKX",
"KXGXGXPXKXGXKXKXKXPXKXGXKXJXKXKXPXPXKXKXPXJXKXKXKXPXPXPXKXKXKXKXPXPXGXPXKXJXKXKXPXJXPXPXJXJXKXKXKXPXKXGXKXJXKXKXPXPXKXKXPXJXKXKX",
"KXGXPXPXKXGXJXPXPXKXKXGXKXKXJXKXKXKXKXPXKXJXKXJXKXPXPXPXKXKXKXKXGXJXGXPXKXKXPXPXKXPXKXPXKXJXKXKXPXKXKXGXKXKXJXKXKXKXKXPXKXJXKXJX",
"KXGXJXPXKXGXJXKXPXPXPXGXJXJXKXKXKXKXKXPXJXJXKXKXKXKXKXPXKXPXKXKXGXKXGXPXKXKXKXPXPXPXKXKXJXJXKXKXPXPXPXGXJXJXKXKXKXKXKXPXJXJXKXKX",
"KXGXPXPXKXGXJXKXPXPXKXGXKXKXJXKXPXPXKXPXJXJXKXKXKXJXKXPXKXPXKXKXPXKXGXPXPXKXKXPXPXPXKXPXKXKXKXKXPXPXKXGXKXKXJXKXPXPXKXPXJXJXKXKX",
"PXGXPXKXJXGXKXPXPXPXKXGXPXKXPXKXPXPXKXPXKXJXJXKXJXKXKXPXKXPXKXKXKXKXGXPXPXKXKXPXPXPXKXPXJXKXPXPXPXPXKXGXPXKXPXKXPXPXKXPXKXJXJXKX",
"KXGXPXJXJXGXKXPXPXPXPXGXPXKXGXPXPXPXKXPXKXJXJXKXJXKXKXPXKXJXKXPXPXPXPXKXKXJXPXJXPXPXJXKXKXJXPXPXPXPXPXGXPXKXGXPXPXPXKXPXKXJXJXKX",
"KXGXPXKXJXGXKXPXKXPXPXGXKXKXGXPXKXKXKXPXPXJXKXKXKXKXJXPXJXJXKXPXPXPXPXKXPXJXKXPXKXPXKXPXKXJXPXPXKXPXPXGXKXKXGXPXKXKXKXPXPXJXKXKX",
"KXGXPXJXJXGXKXPXKXPXPXGXKXKXGXPXPXPXKXPXPXJXKXKXJXPXJXGXJXKXKXKXPXPXPXKXKXJXPXPXKXKXJXPXKXJXKXPXKXPXPXGXKXKXGXPXPXPXKXPXPXJXKXKX",
"KXPXPXPXKXGXJXKXKXPXPXGXKXPXPXPXPXPXKXGXPXJXKXKXJXPXJXPXJXKXKXJXPXKXPXKXKXJXPXPXKXPXKXPXKXKXKXPXKXPXPXGXKXPXPXPXPXPXKXGXPXJXKXKX",
"PXPXPXPXKXGXJXKXJXKXKXPXPXKXPXJXPXPXKXPXKXJXPXPXKXKXJXPXKXKXKXKXPXKXPXKXKXJXPXKXKXJXKXGXPXKXKXKXJXKXKXPXPXKXPXJXPXPXKXPXKXJXPXPX",
"FXFX$ $ $ $ FX$ $ JX$ $ $ FXFX$ FXFXFX$ $ $ FXFXFXFX$ $ $ FX$ FXFX$ FX$ $ $ $ $ $ $ $ $ FX$ $ FXFXFX$ FX$ $ FX$ $ FXFX$ $ FXFX$ ",
"$ $ JXJXJXJX$ $ JXKXJX$ $ $ $ $ JX$ $ $ $ $ $ $ $ FXJXJXKX$ JX$ $ JX$ KXJXJX$ JXJXJX$ $ JXJX$ $ $ $ $ $ JX$ $ JXKX$ JXKXJX$ $ JX",
"$ $ JXJXJXJX$ $ JXJXJX$ PX$ JX$ $ $ $ $ $ $ $ $ $ FXKXJXJX$ JX$ FXJX$ KXJXJXJXJX$ JX$ PXJXKX$ $ $ $ $ $ JX$ $ $ KX$ JXFXJX$ FX$ ",
"JX$ JXJXJXJX$ $ JXJXKXJXKX$ $ $ $ JX$ $ $ $ $ $ $ FXKXJXJX$ $ $ FXJX$ KXJXJXJXJX$ KXKXKXJX$ $ $ JX$ $ $ JX$ $ $ KXJX$ JX$ $ $ $ ",
"JX$ $ JX$ JX$ $ $ JXKXJXJX$ $ $ JXJXJX$ $ $ $ $ $ FXKXKXJX$ $ $ $ JX$ JXJXJXJX$ $ KXKXJXJX$ $ $ JX$ $ $ JX$ $ $ KXJXKXJX$ FXFX$ ",
"$ $ $ JX$ JX$ $ $ JXKXJXJX$ JX$ JXJXJX$ $ $ $ $ $ FXJXKXJX$ $ $ $ $ $ JXJX$ JX$ $ KXKXJX$ JX$ $ JX$ $ $ JXJX$ $ KXJXKXJX$ $ $ $ ",
"JXJX$ $ $ JX$ $ $ KXJXJXJXJXJXJXJXJXJX$ JXJX$ $ $ FXJXKX$ $ $ $ $ $ $ JXJXJXJX$ JXJXKXJXJXJXJX$ JX$ $ $ JX$ $ $ KX$ JX$ $ FX$ JX",
"JXJX$ $ FX$ $ $ JXJXJX$ JXJXJX$ $ JXJXJXJXJXJX$ $ FXJXJX$ $ JX$ $ $ $ JX$ JX$ JX$ JXJXJXJXJX$ $ JXJXJX$ $ $ $ $ KX$ JX$ JXFX$ JX",
"$ JX$ $ $ $ $ $ $ KXJX$ JXJXJX$ JX$ $ JX$ $ $ $ $ FXJXJX$ $ $ $ $ $ $ JX$ $ $ $ $ JXJXJXJXJX$ $ $ JXJX$ $ FX$ $ KX$ $ JXJXFX$ $ ",
"$ $ $ $ $ $ $ $ $ KXJX$ JXKX$ JXJX$ $ KX$ $ $ $ $ FXJXJX$ $ $ $ $ $ $ $ $ $ $ $ FXJXJXJX$ JXJX$ $ $ JX$ $ $ $ $ KX$ $ JXJXFX$ $ ",
"$ $ $ $ FX$ $ $ FXKXJX$ $ KX$ JXJX$ JXKX$ $ $ $ $ FXJXJX$ $ $ $ $ KX$ JX$ $ $ FXFXJXJX$ $ JXJX$ $ JXJX$ $ FXJXJXKX$ KXJXJXFX$ $ ",
"$ $ $ $ $ $ $ $ FXKXKX$ $ KX$ JXJX$ JXKX$ $ $ $ JX$ JX$ $ $ JX$ $ JX$ JX$ $ $ FX$ JXJX$ $ JXJXJX$ JXJX$ $ $ JXJXKX$ JX$ JX$ JX$ ",
"$ $ $ $ $ $ $ $ $ PXPXJX$ JX$ $ $ JXJXKX$ $ JX$ $ FX$ $ $ $ JX$ $ JX$ $ $ $ $ $ JXKXKX$ $ $ $ $ JXKXJX$ $ $ JX$ PX$ JXJX$ $ JX$ ",
"$ $ $ $ FX$ $ $ $ PXKXJX$ KX$ $ $ JX$ KX$ $ JXJX$ $ $ $ JX$ $ $ $ JX$ JX$ JX$ $ JXJXKX$ $ $ $ $ JXKXJXJX$ $ JX$ PX$ KXJX$ FXJX$ ",
"$ $ JXJX$ $ $ $ $ KXKXJX$ KX$ $ $ JX$ KX$ FX$ $ JXJX$ $ JX$ $ $ $ JXJXJX$ $ $ $ JXJXKXJX$ $ $ $ JXFXJXJXFX$ $ $ KX$ KXJX$ $ JXJX",
"PXPXPXPXPXPXPXPXPXGXPXPXPXGXKXPXPXPXPXGXPXPXPXPXPXPXPXPXPXPXPXPXPXPXPXPXPXPXPXPXGXPXGXPXPXPXPXPXPXPXPXPXPXPXPXPXGXPXGXPXPXPXGXPX"
};
