/* XPM */
static char *wall_lab1[] = {
/* columns rows colors chars-per-pixel */
"64 64 256 2 ",
"   c black",
".  c blue",
"X  c green",
"o  c red",
"O  c cyan",
"+  c yellow",
"@  c magenta",
"#  c white",
"$  c #7B7B7B",
"%  c #7B7B7B",
"&  c #7B7B7B",
"*  c #7B7B7B",
"=  c #7B7B7B",
"-  c #7B7B7B",
";  c #7B7B7B",
":  c #7B7B7B",
">  c #7B7B7B",
",  c #7B7B7B",
"<  c #7B7B7B",
"1  c #7B7B7B",
"2  c #7B7B7B",
"3  c #7B7B7B",
"4  c #7B7B7B",
"5  c #7B7B7B",
"6  c #7B7B7B",
"7  c #7B7B7B",
"8  c #7B7B7B",
"9  c #7B7B7B",
"0  c #7B7B7B",
"q  c #7B7B7B",
"w  c #7B7B7B",
"e  c #7B7B7B",
"r  c #7B7B7B",
"t  c #7B7B7B",
"y  c #7B7B7B",
"u  c #7B7B7B",
"i  c #7B7B7B",
"p  c #7B7B7B",
"a  c #7B7B7B",
"s  c #7B7B7B",
"d  c #7B7B7B",
"f  c #7B7B7B",
"g  c #7B7B7B",
"h  c #7B7B7B",
"j  c #7B7B7B",
"k  c #7B7B7B",
"l  c #7B7B7B",
"z  c #7B7B7B",
"x  c #7B7B7B",
"c  c #7B7B7B",
"v  c #7B7B7B",
"b  c #7B7B7B",
"n  c #7B7B7B",
"m  c #7B7B7B",
"M  c #7B7B7B",
"N  c #7B7B7B",
"B  c #7B7B7B",
"V  c #7B7B7B",
"C  c #7B7B7B",
"Z  c #7B7B7B",
"A  c #7B7B7B",
"S  c #7B7B7B",
"D  c #7B7B7B",
"F  c #7B7B7B",
"G  c #7B7B7B",
"H  c #7B7B7B",
"J  c #7B7B7B",
"K  c #7B7B7B",
"L  c #7B7B7B",
"P  c #7B7B7B",
"I  c #7B7B7B",
"U  c #7B7B7B",
"Y  c #7B7B7B",
"T  c #7B7B7B",
"R  c #7B7B7B",
"E  c #7B7B7B",
"W  c #7B7B7B",
"Q  c #7B7B7B",
"!  c #7B7B7B",
"~  c #7B7B7B",
"^  c #7B7B7B",
"/  c #7B7B7B",
"(  c #7B7B7B",
")  c #7B7B7B",
"_  c #7B7B7B",
"`  c #7B7B7B",
"'  c #7B7B7B",
"]  c #7B7B7B",
"[  c #7B7B7B",
"{  c #7B7B7B",
"}  c #7B7B7B",
"|  c #7B7B7B",
" . c #7B7B7B",
".. c #7B7B7B",
"X. c #7B7B7B",
"o. c #7B7B7B",
"O. c #7B7B7B",
"+. c #7B7B7B",
"@. c #7B7B7B",
"#. c #7B7B7B",
"$. c #7B7B7B",
"%. c #7B7B7B",
"&. c #7B7B7B",
"*. c #7B7B7B",
"=. c #7B7B7B",
"-. c #7B7B7B",
";. c #7B7B7B",
":. c #7B7B7B",
">. c #7B7B7B",
",. c #7B7B7B",
"<. c #7B7B7B",
"1. c #7B7B7B",
"2. c #7B7B7B",
"3. c #7B7B7B",
"4. c #7B7B7B",
"5. c #7B7B7B",
"6. c #7B7B7B",
"7. c #7B7B7B",
"8. c #7B7B7B",
"9. c #7B7B7B",
"0. c #7B7B7B",
"q. c #7B7B7B",
"w. c #7B7B7B",
"e. c #7B7B7B",
"r. c #7B7B7B",
"t. c #7B7B7B",
"y. c #7B7B7B",
"u. c #7B7B7B",
"i. c #7B7B7B",
"p. c #7B7B7B",
"a. c #7B7B7B",
"s. c #7B7B7B",
"d. c #7B7B7B",
"f. c #7B7B7B",
"g. c #7B7B7B",
"h. c #7B7B7B",
"j. c #7B7B7B",
"k. c #7B7B7B",
"l. c #7B7B7B",
"z. c #7B7B7B",
"x. c #7B7B7B",
"c. c #7B7B7B",
"v. c #7B7B7B",
"b. c #7B7B7B",
"n. c #7B7B7B",
"m. c #7B7B7B",
"M. c #7B7B7B",
"N. c #7B7B7B",
"B. c #7B7B7B",
"V. c #7B7B7B",
"C. c #7B7B7B",
"Z. c #7B7B7B",
"A. c #7B7B7B",
"S. c #7B7B7B",
"D. c #7B7B7B",
"F. c #7B7B7B",
"G. c #7B7B7B",
"H. c #7B7B7B",
"J. c #7B7B7B",
"K. c #7B7B7B",
"L. c #7B7B7B",
"P. c #7B7B7B",
"I. c #7B7B7B",
"U. c #7B7B7B",
"Y. c #7B7B7B",
"T. c #7B7B7B",
"R. c #7B7B7B",
"E. c #7B7B7B",
"W. c #7B7B7B",
"Q. c #7B7B7B",
"!. c #7B7B7B",
"~. c #7B7B7B",
"^. c #7B7B7B",
"/. c #7B7B7B",
"(. c #7B7B7B",
"). c #7B7B7B",
"_. c #7B7B7B",
"`. c #7B7B7B",
"'. c #7B7B7B",
"]. c #7B7B7B",
"[. c #7B7B7B",
"{. c #7B7B7B",
"}. c #7B7B7B",
"|. c #7B7B7B",
" X c #7B7B7B",
".X c #7B7B7B",
"XX c #7B7B7B",
"oX c #7B7B7B",
"OX c #7B7B7B",
"+X c #7B7B7B",
"@X c #7B7B7B",
"#X c #7B7B7B",
"$X c #7B7B7B",
"%X c #7B7B7B",
"&X c #7B7B7B",
"*X c #7B7B7B",
"=X c #7B7B7B",
"-X c #7B7B7B",
";X c #7B7B7B",
":X c #7B7B7B",
">X c #7B7B7B",
",X c #7B7B7B",
"<X c #7B7B7B",
"1X c #7B7B7B",
"2X c #7B7B7B",
"3X c #7B7B7B",
"4X c #7B7B7B",
"5X c #7B7B7B",
"6X c #7B7B7B",
"7X c #7B7B7B",
"8X c #7B7B7B",
"9X c #7B7B7B",
"0X c #7B7B7B",
"qX c #7B7B7B",
"wX c #7B7B7B",
"eX c #7B7B7B",
"rX c #7B7B7B",
"tX c #7B7B7B",
"yX c #7B7B7B",
"uX c #7B7B7B",
"iX c #7B7B7B",
"pX c #7B7B7B",
"aX c #7B7B7B",
"sX c #7B7B7B",
"dX c #7B7B7B",
"fX c #7B7B7B",
"gX c #7B7B7B",
"hX c #7B7B7B",
"jX c #7B7B7B",
"kX c #7B7B7B",
"lX c #7B7B7B",
"zX c #7B7B7B",
"xX c #7B7B7B",
"cX c #7B7B7B",
"vX c #7B7B7B",
"bX c #7B7B7B",
"nX c #7B7B7B",
"mX c #7B7B7B",
"MX c #7B7B7B",
"NX c #7B7B7B",
"BX c #7B7B7B",
"VX c #7B7B7B",
"CX c #7B7B7B",
"ZX c #7B7B7B",
"AX c #7B7B7B",
"SX c #7B7B7B",
"DX c #393939",
"FX c #838383",
"GX c gray29",
"HX c #6A6A6A",
"JX c gray45",
"KX c #7B7B7B",
"LX c #626262",
"PX c #5A5A5A",
"IX c gray58",
"UX c gray32",
/* pixels */
"PXPXPXPXPXPXPXPXPXPXPXPXPXPXPXPXPXPXGXPXPXPXPXPXPXLXPXPXPXPXPXPXPXPXPXGXPXPXPXPXPXPXPXPXGXPXPXPXPXPXPXPXPXPXPXPXPXPXPXPXPXPXPXPX",
"FXFXFXFXFXFXIXFXFXFXFXFXFXFXFXFXFXFXFXFXFXFXFXIXFXIXFXFXFXFXFXFXFXFXIXFXFXFXFXFXFXFXFXFXFXIXFXFXIXFXFXFXIXFXFXFXFXFXFXIXFXFXIXFX",
"$ $ $ $ $ $ $ LXJXJX$ $ $ JXJXJX$ $ JXJX$ $ LXJXLXFX$ $ JXJXJXJX$ JX$ JX$ JXJXJX$ $ JXJXLXJX$ JX$ FX$ $ $ JXJXJXLX$ $ $ JX$ $ $ ",
"JX$ $ $ JX$ $ LXJXJX$ $ FX$ JX$ JX$ JX$ $ $ LX$ JXFXJXJX$ $ JX$ JXJX$ JX$ $ JXJX$ $ $ JXLXJX$ $ FX$ JXFXJXJX$ JXLXJX$ $ $ $ $ $ ",
"JX$ $ JXJX$ $ JXJXJX$ $ $ FX$ $ $ $ JX$ $ $ LX$ LXFXJXJXJX$ JX$ $ LX$ JX$ $ JX$ $ $ $ JXLXJX$ JX$ $ $ $ $ JX$ JXJXJX$ $ $ $ $ $ ",
"$ $ $ JXJX$ $ $ LX$ $ $ $ FX$ $ $ $ JX$ $ $ JXJXLXFX$ JX$ $ JXJX$ $ $ JX$ $ JX$ $ $ $ JXLX$ $ $ $ JXJXFX$ $ $ JXLX$ $ $ $ $ $ $ ",
"$ $ JXJXJX$ $ $ LX$ $ $ FX$ $ $ FX$ JX$ $ $ JXJXLXFXJXJX$ $ JX$ $ $ JXLXJX$ $ $ $ $ JXJXJX$ JX$ $ JXJXJX$ $ FX$ LXJX$ JX$ $ $ JX",
"$ $ $ $ JX$ $ $ JX$ $ $ $ $ $ $ FX$ JX$ $ $ JXJXLXFXJXJX$ JXJX$ $ $ JXLXJX$ $ $ $ $ JX$ LXJXJX$ $ $ JXJX$ $ $ $ JXJX$ $ $ $ $ JX",
"JX$ $ JX$ JX$ $ JX$ $ $ $ $ $ $ $ JXJXJX$ $ JX$ JX$ LXJXJX$ JX$ FXJX$ JXJX$ $ $ $ $ $ $ JXLXJX$ $ $ JX$ $ $ $ JX$ LX$ $ $ $ $ $ ",
"JXJXJX$ $ JX$ $ JXPXJXJXJX$ $ $ JX$ $ $ $ $ JXLXLX$ $ JXJX$ JXJX$ JXJXLXJXJX$ $ JXJX$ $ LXLXJX$ $ $ JX$ $ $ FXJX$ $ $ FXJX$ $ $ ",
"JXJXJX$ $ JX$ $ JX$ LXJXJX$ $ $ JX$ $ $ $ $ JXLXJX$ JXJXJX$ JXJXFX$ JXLXJX$ $ $ JXJX$ JXLXJXJX$ JX$ $ $ $ $ $ JX$ $ $ $ JX$ $ $ ",
"JX$ JXJXJXJX$ $ JXJXJXJX$ $ JX$ $ JX$ $ JXJXJXJXJX$ JXJXJX$ $ JXFXJXLXPXJX$ $ JXJX$ JXJXLXLX$ $ JX$ $ $ $ $ $ JX$ $ $ JXLXJX$ $ ",
"$ JXJXJX$ $ $ $ LXJX$ JX$ JXJXJX$ $ $ $ $ $ $ JXJXFXJXJXJX$ $ JX$ JXJXLX$ JX$ JXJXJXJXPXLXJX$ $ $ $ $ JX$ JX$ JXJX$ $ $ JXJX$ LX",
"$ JXJXLX$ $ $ $ LXJX$ LXJX$ JX$ $ $ $ $ $ $ $ JXJXFXJXJXJX$ $ $ $ JXJXLX$ JX$ JXJXJX$ LXLXJX$ $ $ $ $ $ $ JX$ LX$ JX$ $ $ JX$ JX",
"$ $ JX$ $ JX$ $ LXJX$ JX$ FXJX$ $ JX$ $ JXJX$ $ JXFX$ $ JX$ $ $ $ JX$ LXJXJX$ JXJXLXJXLXLXJX$ $ $ $ $ $ $ $ JXLXLX$ $ $ $ JX$ JX",
"$ $ JXJXJXJX$ $ JXJX$ LXJX$ $ JX$ JX$ $ $ $ $ $ JXFX$ $ JX$ $ $ $ JXJXPXJXJX$ JXJXLXJXLXJXJX$ $ JXJXJX$ $ JXJXLXJX$ $ $ $ JX$ JX",
"$ $ JX$ JXJX$ $ JXPXJXJXJX$ JXJXJXJX$ $ $ $ $ $ JXFX$ $ JX$ $ $ $ JXJXPXJX$ $ JXLXLXJXLXJXJX$ $ JXJXJX$ $ $ JXJXLXJX$ $ $ $ $ JX",
"$ $ JXJX$ JX$ JXJXLX$ JX$ $ JXJX$ $ $ JXJXJX$ $ JXFXJX$ $ $ JXJXJX$ JXJXJXJXJXJXJXJXJXJX$ JX$ $ JXJXJX$ $ $ JXJXJXJX$ $ $ $ $ $ ",
"JX$ JXJX$ $ $ JX$ LX$ JX$ $ JXJX$ JX$ JXJXJX$ $ JXFXJX$ $ $ $ $ JXJXJXLX$ JXJX$ JXJXJXJX$ JXJXFX$ JXJX$ $ $ JXLXLXJX$ $ $ $ $ $ ",
"JX$ JXJXJX$ $ $ JXLXFXJX$ $ $ JXJXJX$ $ JXJX$ $ JXFX$ $ $ $ $ $ JXJXJXLX$ JX$ JXJXJXJXLX$ JXJX$ $ JX$ $ $ $ JXJXLX$ $ JXJX$ $ $ ",
"$ $ JXJXJX$ $ JXJXJXFXJX$ $ $ JXJXJX$ JX$ $ $ $ LX$ $ $ $ $ $ $ $ JX$ LX$ JXJXJX$ JXJXLX$ JXJX$ $ JX$ $ $ JXJXJXLXJX$ JXJX$ $ $ ",
"$ $ JXJX$ $ $ JXJXJX$ JX$ $ $ JXJXJX$ JXJXJX$ $ LX$ $ $ $ $ JXJXJXJXJXJX$ JXJXJX$ JXJXLX$ JX$ $ $ $ $ $ JXJXJX$ LXJX$ $ JX$ FX$ ",
"$ JXJXJXJX$ $ JX$ JX$ JXJX$ $ $ $ $ $ JXJXJX$ JXLXFXJXJXJX$ $ $ JXJXJXLX$ $ JX$ $ $ JXLX$ JX$ FX$ $ JX$ JXJXJXJXLXJX$ JXJXJX$ $ ",
"$ JXJXJXJXJX$ JXLXLXJXJXJX$ $ JX$ $ $ JXJXJX$ JX$ FXJXJXJX$ JX$ JX$ $ LXJXJXJXLXJXJXJXLX$ JXJX$ $ $ JX$ JXLXJXJXLXJX$ JXJX$ $ $ ",
"GXDXGXGXGXGXGXGXGXGXJXJXJX$ $ JX$ $ $ JXJXJX$ $ $ FXJXJXLX$ JX$ $ JX$ LXJXJXJXLXLXJXJXLX$ JXJX$ $ $ JX$ JXLX$ PXGXGXGXGXGXGXGXDX",
"PXGXPXLXLXJXLXLXPXGXPX$ $ $ $ $ JX$ $ $ $ $ $ $ $ FXJXJXLX$ JX$ $ JX$ LXJXJX$ JXJXJX$ $ JXJX$ $ $ $ $ $ JX$ LXGXPXLXLXJXLXLXPXGX",
"PXPXPXLXGXJXPXLXLXLXGXLXPX$ JX$ $ $ $ $ $ $ $ $ $ FXLXJXJX$ JX$ FXJX$ LXJXJXJXJX$ JX$ PXJXLX$ $ $ $ $ $ JXLXGXLXLXLXPXJXGXLXPXPX",
"PXPXGXPXGXJXLXJXLXPXLXGXPX$ $ $ $ JX$ $ $ $ $ $ $ FXLXJXJX$ $ $ FXJX$ LXJXJXJXJX$ LXLXLXJX$ $ $ JX$ $ $ PXGXLXPXLXJXLXJXGXPXGXPX",
"LXPXGXPXPXJXLXLXPXPXPXLXGXLX$ $ JXJXJX$ $ $ $ $ $ FXLXLXJX$ $ $ $ JX$ JXJXJXJX$ $ LXLXJXJX$ $ $ JX$ $ LXGXLXPXPXPXLXLXJXPXPXGXPX",
"LXPXGXPXPXLXPXJXPXPXPXLXLXGXPX$ JXJXJX$ $ $ $ $ $ FXJXLXJX$ $ $ $ $ $ JXJX$ JX$ $ LXLXJX$ JX$ $ JX$ LXGXLXLXPXPXPXJXPXLXPXPXGXPX",
"LXGXPXPXPXPXPXPXPXPXPXLXPXPXGXPXJXJXJX$ JXJX$ $ $ FXJXLX$ $ $ $ $ $ $ JXJXJXJX$ JXJXLXJXJXJXJX$ JXLXGXPXPXLXPXPXPXPXPXPXPXPXPXGX",
"PXPXPXLXPXPXPXLXLXPXPXPXPXPXPXGXLXJXJXJXJXJXJX$ $ FXJXJX$ $ JX$ $ $ $ JX$ JX$ JX$ JXJXJXJXJX$ $ PXGXPXPXPXPXPXPXLXLXPXPXPXLXPXPX",
"LXGXPXLXPXPXPXLXPXLXLXPXLXLXLXLXGXPXGXGXGXGXGXGXGXGXGXGXGXGXGXGXGXGXGXGXGXGXGXGXGXGXGXGXGXGXGXPXGXLXLXLXLXPXLXLXPXLXPXPXPXLXPXGX",
"LXGXPXLXPXGXLXPXPXLXLXGXJXJXLXLXJXJXPXPXLXJXLXLXLXJXPXPXLXPXPXPXJXLXJXLXJXLXLXLXLXLXLXJXLXPXPXJXJXLXLXJXJXGXLXLXPXPXLXGXPXLXPXGX",
"JXGXPXLXLXGXLXPXPXLXPXGXLXLXLXLXLXJXPXPXLXJXLXLXLXJXPXPXLXLXPXPXJXJXJXLXLXPXLXGXLXLXLXJXLXPXPXJXLXLXLXLXLXGXPXLXPXPXLXGXLXLXPXGX",
"JXGXGXLXJXGXLXPXPXLXPXGXJXLXLXLXPXJXPXLXLXJXPXLXLXPXPXPXLXLXPXPXLXJXLXLXLXPXLXPXLXLXPXJXLXLXPXJXPXLXLXLXJXGXPXLXPXPXLXGXJXLXGXGX",
"LXGXGXPXJXPXLXLXLXPXPXGXJXLXPXLXLXJXLXJXLXJXPXLXLXLXLXJXJXLXGXGXPXLXLXLXLXLXLXPXLXLXPXJXLXJXLXJXLXLXPXLXJXGXPXPXLXLXLXPXJXPXGXGX",
"LXGXGXPXJXGXLXLXLXPXLXGXLXLXPXPXLXLXLXJXPXJXLXLXLXLXLXJXLXLXGXPXPXLXLXPXLXPXLXPXLXLXLXJXPXJXLXLXLXPXPXLXLXGXLXPXLXLXLXGXJXPXGXGX",
"LXGXGXPXLXGXLXLXLXPXLXGXLXJXLXLXPXPXLXLXPXJXLXLXLXLXLXJXLXPXGXPXPXLXLXLXLXPXPXPXLXLXLXJXPXLXLXPXPXLXLXJXLXGXLXPXLXLXLXGXLXPXGXGX",
"LXGXPXPXLXGXJXPXPXLXLXGXLXLXJXLXLXLXLXPXLXJXLXJXLXPXPXLXLXPXGXJXGXLXLXLXLXPXPXPXLXJXLXJXLXPXLXLXLXLXJXLXLXGXLXLXPXPXJXGXLXPXPXGX",
"LXGXJXPXLXGXJXLXPXPXPXGXJXJXLXLXLXLXLXPXJXJXLXLXLXPXLXLXLXPXGXLXGXLXLXPXLXPXLXLXLXLXLXJXJXPXLXLXLXLXLXJXJXGXPXPXPXLXJXGXLXPXJXGX",
"LXGXPXPXLXGXJXLXPXPXLXGXLXLXJXLXPXPXLXPXJXJXLXLXLXPXLXLXPXPXGXLXPXLXLXPXLXPXLXJXLXLXLXJXJXPXLXPXPXLXJXLXLXGXLXPXPXLXJXGXLXPXPXGX",
"PXGXPXLXJXGXLXPXPXPXLXGXPXLXPXLXPXPXLXPXLXJXJXLXJXPXLXLXPXPXGXLXLXLXLXPXLXPXLXLXJXLXJXJXLXPXLXPXPXLXPXLXPXGXLXPXPXPXLXGXJXLXPXGX",
"LXGXPXJXJXGXLXPXPXPXPXGXPXLXGXPXPXPXLXPXLXJXJXLXJXJXPXJXLXLXPXPXPXPXLXJXLXPXLXLXJXLXJXJXLXPXLXPXPXPXGXLXPXGXPXPXPXPXLXGXJXJXPXGX",
"LXGXPXLXJXGXLXPXLXPXPXGXLXLXGXPXLXLXLXPXPXJXLXLXLXPXLXJXPXLXPXPXPXPXLXJXJXPXJXLXLXLXLXJXPXPXLXLXLXPXGXLXLXGXPXPXLXPXLXGXJXLXPXGX",
"LXGXPXJXJXGXLXPXLXPXPXGXLXLXGXPXPXPXLXPXPXJXLXLXJXPXPXJXLXLXPXPXPXLXLXLXJXGXJXPXJXLXLXJXPXPXLXPXPXPXGXLXLXGXPXPXLXPXLXGXJXJXPXGX",
"LXPXPXPXLXGXJXLXLXPXPXGXLXPXPXPXPXPXLXGXPXJXLXLXJXPXPXJXLXLXPXLXPXJXLXLXJXPXJXPXJXLXLXJXPXGXLXPXPXPXPXPXLXGXPXPXLXLXJXGXLXPXPXPX",
"PXPXPXPXLXGXJXLXJXLXLXPXPXLXPXJXPXPXLXPXLXJXPXPXLXLXPXJXLXLXPXLXPXLXLXLXLXPXJXLXLXPXPXJXLXPXLXPXPXJXPXLXPXPXLXLXJXLXJXGXLXPXPXPX",
"$ FXFXFX$ FXFX$ $ $ $ FXFX$ FXFXFXFXFX$ FXFX$ FX$ $ FX$ $ FX$ $ FXFXFX$ FX$ $ FXFXFX$ FX$ FX$ FX$ FXFX$ $ FXFXFX$ FXFXFXFXFX$ FX",
"JX$ $ $ $ $ $ JXJXLXJX$ $ JX$ $ FX$ $ JX$ FXJXFX$ $ $ LXJX$ $ JX$ $ $ JX$ JXJX$ $ $ JX$ JX$ JXJXJX$ $ JXJX$ $ $ LX$ JXJX$ $ JX$ ",
"JX$ JXJX$ $ $ JXJXLXJX$ $ JX$ $ FX$ $ JXFXFXJXFX$ $ $ LXJX$ JXJX$ $ $ JX$ $ JX$ $ $ JX$ $ $ JXJXJX$ $ JXJX$ $ $ JX$ JXJX$ $ JXJX",
"$ $ JXJX$ $ $ $ JXLXLX$ $ JX$ $ $ $ $ LXFX$ JXFX$ $ $ LXJX$ JXJX$ FX$ JXFXJXJXJX$ $ LXJX$ $ LXJXJX$ $ JXJX$ $ $ LX$ $ JX$ $ JX$ ",
"$ JXJX$ JX$ $ JX$ LXJX$ $ JX$ $ FX$ JXLX$ JXJX$ $ $ $ JX$ FXLXJX$ $ $ JXFXJXJX$ $ $ LXJXFXFXJX$ JX$ JXJX$ $ $ $ LX$ JXJXJX$ JX$ ",
"JX$ $ $ $ JXJXJX$ LX$ LX$ JX$ $ $ FX$ LX$ $ JX$ $ $ $ LXJX$ JX$ $ $ $ JX$ LXJX$ $ JXLX$ $ FXJXJX$ $ JXJX$ $ $ $ $ $ JXJX$ $ $ JX",
"$ JX$ $ JX$ JXJX$ $ $ LXFX$ $ FX$ $ JXLXJX$ JX$ JXJX$ LXJX$ JXJXJX$ $ JX$ JXJX$ $ JXLX$ FXFXJXJX$ $ LXPX$ FX$ $ LX$ LXJX$ $ JXJX",
"$ JX$ $ $ FXJXJX$ $ JXLXFXJX$ $ $ $ $ LXJXFXJXFXJXJXJXLXJX$ $ $ JX$ $ JXFXJXJX$ $ JXLX$ FXFXLX$ $ $ $ PXFXFX$ $ LX$ JXJX$ $ $ $ ",
"JX$ JXJX$ $ $ $ $ $ LXLX$ LXJX$ $ $ JXLXLX$ JX$ $ LX$ LXJX$ $ $ $ JXJXJX$ $ $ $ $ LXPXJX$ $ LXJX$ $ $ PXJXFXJX$ PX$ JXJX$ $ $ JX",
"JX$ JXJX$ $ $ $ $ $ LXLX$ JX$ $ $ $ JXLXJXJXJX$ JXLX$ LXJX$ $ $ $ JXJXJX$ $ $ $ $ LXLXJXFXFXLXJX$ $ $ LXJXFXJXJXPX$ JXJX$ $ $ JX",
"JX$ JXJX$ JX$ $ $ JXLXLX$ $ JX$ $ $ JXLXJX$ JX$ JXLX$ LXJX$ JX$ $ JXJXJXJX$ $ $ JXLXLXJXFX$ LX$ $ $ $ JX$ FXJXJXLX$ JXJX$ $ $ JX",
"$ $ $ JX$ JX$ $ $ JXJXLX$ JXJX$ $ $ JXLXJX$ JX$ JXJX$ LXJX$ JX$ $ $ JXJXJX$ $ $ JXJXLXLX$ $ LX$ $ $ JXJX$ FXJXJXJX$ JXJX$ $ $ JX",
"$ $ JXJX$ JXFX$ FXJXJXJX$ JXLX$ $ JXJXLXLX$ $ $ LXJX$ LXJX$ JX$ $ JXJXJXJXFX$ FXJXJXLXLX$ $ LXJXJX$ JXLX$ FXJXLX$ $ JXJXJX$ $ $ ",
"$ $ $ JX$ JX$ $ $ JXJXJX$ LXLX$ $ JXJXLXLX$ JXFXLXJX$ LX$ $ JXJX$ $ JXJXJX$ $ $ JXJXLXLX$ $ LXJXJX$ JXLX$ $ $ LX$ $ LX$ JXFXJX$ ",
"$ $ $ $ $ JX$ $ $ $ JXLX$ JXLX$ $ $ $ LXLXJXJXFXLXJX$ LX$ $ LXJX$ $ $ JXJX$ $ $ $ JXLXLX$ $ LXJX$ FXJXLXJX$ $ LX$ $ LX$ JXFX$ $ ",
"PXPXPXPXPXPXPXPXPXPXPXGXPXPXGXPXPXPXPXGXGXPXPXPXGXPXPXGXPXPXGXPXPXPXPXPXPXPXPXPXPXPXGXGXPXPXGXGXPXLXPXGXPXPXPXGXPXPXPXPXPXLXPXPX"
};
