/* XPM */
static char * west_wall_xpm[] = {
"64 64 41 1",
" 	c #0700FF",
".	c #0400CB",
"+	c #01007A",
"@	c #0400BC",
"#	c #000000",
"$	c #020089",
"%	c #0600F4",
"&	c #0600E8",
"*	c #01006E",
"=	c #0300A5",
"-	c #020095",
";	c #0500E1",
">	c #0400CC",
",	c #010058",
"'	c #0700FC",
")	c #0600EB",
"!	c #0300AA",
"~	c #0300B3",
"{	c #020094",
"]	c #010070",
"^	c #010060",
"/	c #000031",
"(	c #0300A3",
"_	c #01006B",
":	c #0300AC",
"<	c #010077",
"[	c #020083",
"}	c #010054",
"|	c #0300B8",
"1	c #010057",
"2	c #0500D5",
"3	c #000036",
"4	c #01004D",
"5	c #0500D2",
"6	c #000037",
"7	c #0300A2",
"8	c #0500DD",
"9	c #010069",
"0	c #010065",
"a	c #01006C",
"b	c #00001C",
"                                                                ",
"                                                                ",
"                                                                ",
"                                                                ",
"                                                                ",
"                                                                ",
"                                                                ",
"                                                                ",
"                                                                ",
"                                                                ",
"                                                                ",
"                                                                ",
"                                                                ",
"                                                                ",
"                                                                ",
"                                                                ",
"                                                                ",
"       .++.                                                     ",
"       @##$%                                                    ",
"       @###&                                                    ",
"       %*##*                   %=$-;                            ",
"        .###%                  &###@                            ",
"         ###@                  >###,                     '&&)   ",
"         !##,.                 ~####%                    &##+   ",
"         .,##!'                ,####@                    {##]   ",
"          @###&               '^####$%                   ]##{   ",
"          %*##!               &###/##&                  &###&   ",
"           (###               >##_,##!                 %!##*'   ",
"            ###@              :##<-##[;                &###+    ",
"            $##$              ###@@###@                *##*     ",
"            @###             ;###; @##,)              ;}##|     ",
"             ###.            @###  ;1##2              @###&     ",
"             $##!%           $##@   *##*              <##:      ",
"             @###@           ###;   2##3(            %^##>      ",
"             %!##$          &###    )*##*%           @###&      ",
"              .###          >##4     &###@          %$##!'      ",
"               ###@         !##,     '!##$         '5##6.       ",
"               $##$%        $##@      .###         &###+        ",
"               @###&        ###;       ###@        !##,.        ",
"                ^##|       @###        $##$%      %###(         ",
"                -##7'      $##$        @###&      @###          ",
"                @###&      ###@         ^##|     .,##$          ",
"                %^##>     .###          -##~    %!##,.          ",
"                 <##:     !##$          !##,    @###@           ",
"                 :##<     ###@          8##}%  .,##!%           ",
"                 >##^'   .###%          &###& '!##,.            ",
"                 &###&   +##*            ^##| &###@             ",
"                 '^##>  @###&            -##~ |##9%             ",
"                  <##:  $##$%            !##,%0##{              ",
"                  @###& ###@             8##}@###&              ",
"                  ;}##8.###              &###$##$%              ",
"                   ,##-$##$               #####,.               ",
"                   ~##a###@               ,####@                ",
"                   |##b##!%               6###,;                ",
"                   &####1;                ^###(                 ",
"                   %$###*                 +###                  ",
"                    @###2                  &&&                  ",
"                     (++)                                       ",
"                                                                ",
"                                                                ",
"                                                                ",
"                                                                ",
"                                                                ",
"                                                                "};
